<svg xmlns="http://www.w3.org/2000/svg" viewBox="331.856 92 1257.288 992"><defs><style>.a,.b,.c{fill:#4099ff;}.a,.b,.c,.d{stroke:#fff;stroke-linecap:round;stroke-linejoin:round;stroke-width:2.515px;}.a{opacity:0.7;}.c{opacity:0.9;}.d{fill:#e81b00;}</style></defs><g transform="translate(331.856 92)"><path class="a" d="M1216.929,222.037l.5,4.652.88,2.892,1.509,2.389-2.515,3.017-6.915,3.52-.629,7.167.126,1.132-3.269,1.257-7.292.754-1.509,1.006-.251,2.012,1.383,6.035.251,3.269-.126,3.143-3.018,18.231-.251,3.52.251,2.515.754,2.263.88,1.886,1.132,4.023-3.018,1.76-.251,1.383.126,1.886,5.155,8.424,3.395,7.921,1.132,3.646V324l-.754,1.76-1.006,2.766-.377,5.909,1.383,3.143,2.137,2.137,2.515,1.006,12.7,1.634,4.526,3.395,1.132,3.143-8.549,8.55-4.778,2.263-9.681,1.257-3.9,1.76-17.1,1.006-14.333-13.076-6.664-4.778-2.137-12.7-3.018-8.424-7.041-4.526-.629-.126.126-2.766-1.509-6.161-4.526-8.8-.88-2.892-.377-4.4v-3.395l.5-3.772,5.783-14.082,1.509-2.389.126-1.257-1.006-2.012-1.383-2.012-3.269-3.646-1.006-1.509-.377-1.509v-1.257l2.389-4.023,3.772-3.017,2.766-4.023,9.807.629,3.9,1.132,3.269.126,2.263-.629,2.515-.88h2.389l7.8,1.634,2.766-.377,1.635-.88.754-1.257.629-.754,1.509-1.006.754-.88.5-1.132V241.4l-.252-1.634.377-1.886,1.132-2.137,4.149-2.892,1.886-1.634,1.383-1.509,1.257-2.389.126-.377-.126-.251-.251-.126-.251-.126-3.52.126h-1.006l-.754-.126-.88-.5-.5-.377-1.257-1.76-1.006-.377-1.383-.126-1.76.126-.754-.5.251-1.383,3.52-3.772,2.012-1.509,2.012-.754,1.132.126,8.3,2.263.88.5.251.629-.251.754-.377.88-.126.88.377.754,2.137,1.006,7.292-1.257Zm-21.122-99.954-3.52,2.515-10.938,3.017-3.521.126-2.263-.251-1.634-.629-1.132.377-1.509.88-3.143,2.515-6.286,6.915-2.892,1.634-2.263.754-1.635-.126-2.137-.251-2.64.377-2.137,1.634-.88,1.886-.126,2.263,1.383,5.909v2.263l2.137,9.43.629,4.652.251,1.132.5.754,1.006.629,2.515.377.754.377,1.76.754,1.006.126,7.921-.754,5.658.251,1.634-.377,1.383-.754,3.52-2.64.251-.126.5-.251,1.006-.251,1.257.126.754.251.251.126.126.126,1.257,1.132,3.395,4.652.754,1.76.629,2.389-.629,2.515-1.634,2.515-6.286,7.041-.754,1.132-.126.629.377.629.251.377.377.629.251.629.251.88.5.88.88.629,1.509.377H1186l2.137-.5,1.886.754,1.132,1.886.5,5.909-.88,2.263-1.132.88h-1.509l-1.383.5-1.886,2.137-1.509,1.509-2.137,1.132-2.263.377-2.766-.377-12.7-3.772-1.76-1.006-1.383-1.509-1.006-1.634-1.006-1.257-2.012-1.634-5.532-2.515-1.76.251-1.886,1.132-.88,2.766-1.257,6.538-3.52,7.669-4.149-6.286-5.532-6.789-6.915-6.538-.251-2.389L1125.65,194l1.257-2.263.126-2.892-1.76-2.64-9.807-10.687-1.76-3.646-.754-2.766-.126-1.006.126-2.766-.377-4.526-1.132-6.161-7.041-23.26-1.383-2.263-1.886-1.006-2.64-.754-2.012-.251-6.286-5.909-.377-.377,3.52-5.029,2.892-2.137,2.389-.377,3.269-1.006,2.892-1.509,1.257-2.012,1.257-.629,7.669-2.137,9.3-7.669,14.207-18.1,7.041-6.035-1.509,2.64-1.635,5.909-2.64,5.029,1.006,1.76,1.886.5,1.006-1.006.5-4.275,2.515-8.172.5-5.532,1.634-2.515,11.064-10.435,2.263-3.017,2.012-3.269,1.509-4.149,1.132-5.406H1165L1164,45.011l-1.509,2.263-2.012,1.634-2.515,1.132,6.915-11.567,5.532-12.2L1175.187,7.8l1.006-2.515,6.035-.5,13.2-3.52,3.017.377,4.149,11.19,1.257,5.909-.5,5.281-1.76,8.675-1.132,26.026-1.76,4.149-5.029,7.167-1.257,4.275,1.132,5.029,6.161,8.172,1.132,3.52L1198.95,94.8l-3.269,2.64-2.892,3.017-.126,5.029,1.257,12.95,1.383,3.395.5.251Z"/><path class="a" d="M1137.343,211.853l-4.778-.126-.754.754-.377,1.006,1.132,3.646.629,2.389.377,2.515-.251,2.263-.754,1.634-1.509,1.132-1.886.754-3.772,1.132-3.018,1.634-2.012.754-3.52.754-3.772.126-3.269-.126-2.389-1.006-1.76-1.509-2.012-3.017-2.766-6.161-1.635-7.544-2.137-3.395-3.269-3.772-12.07-10.813-4.9-3.395-18.356-7.544-3.143-2.137-7.8-6.789-17.1-10.687-.754-.377,1.257-3.52,1.132-4.9,2.892-5.784,4.023-4.652,4.4-1.76-2.137,4.778-2.892,3.9-1.635,3.52,1.509,3.772,4.023,1.634,5.155-.88,5.658-1.76,5.532-1.006,1.635-2.263,4.023-11.19,2.389-4.275,6.789-7.418,4.275-3.269,8.927-3.52,3.143-4.526.377.377,6.286,5.909,2.012.251,2.64.754,1.886,1.006,1.383,2.263,7.041,23.26,1.132,6.161.377,4.526-.126,2.766.126,1.006.754,2.766,1.76,3.646,9.807,10.687,1.76,2.64-.126,2.892L1125.65,194l-1.006,2.137.252,2.389,6.915,6.538,5.532,6.789Z"/><path class="a" d="M1227.867,336.827l8.047,1.634,2.012-1.006-.126,2.012-1.383,2.766-7.292,5.281-1.509,1.383-1.132-3.143-4.526-3.395,1.634-5.784,4.275.251Zm22.631-44.382-1.509-.251-13.83-3.143-2.263-.126-2.389.629-.126,1.132.377,1.132.88,1.509.88,2.012.629,2.389.5,4.023.377,1.76.88,1.509.88,1.132.252,2.012-.377,2.515-1.006,3.9-1.383,2.137-1.509,1.383-2.137,7.921-3.143,3.646-4.275-10.938L1203.6,298.732l-1.634-1.257-3.143-.754-1.132-4.023-.88-1.886-.754-2.263-.251-2.515.251-3.52,3.018-18.231.126-3.143-.251-3.269-1.383-6.035.251-2.012,1.509-1.006,7.292-.754,3.269-1.257.251,1.634,3.269,1.634,4.023,1.132s1.383-.031,4.4-1.886,7.669-5.532,7.669-5.532l2.892-2.515,6.161-2.137,7.292-3.9,1.132-7.921,1.886-2.515,6.664-5.281h.377l.126,2.263-.251,3.143-1.132,5.658-.754,8.675-2.515,12.573-.88,40.61Zm.629-102.343-1.132.5-10.561,9.681-9.681,5.909-2.64,2.263-1.509,3.269-.754,2.766-.88,2.137-7.041,5.406-7.292,1.257-2.137-1.006-.377-.754.126-.88.377-.88.251-.754-.251-.629-.88-.5-8.3-2.263-1.132-.126-2.012.754-2.012,1.509-3.52,3.772-.251,1.383.754.5,1.76-.126,1.383.126,1.006.377,1.257,1.76.5.377.88.5.754.126h1.006l3.52-.126.251.126.252.126.126.251-.126.377-1.257,2.389-1.383,1.509-1.886,1.634-4.149,2.892-1.132,2.137-.377,1.886.251,1.634v1.509l-.5,1.132-.754.88-1.509,1.006-.629.754-.754,1.257-1.634.88-2.766.377-7.8-1.634h-2.389l-2.515.88-2.263.629-3.269-.126-3.9-1.132-9.807-.629.754-6.035-.126-1.634-2.892-8.675,6.538-5.658,1.132-2.892-.126-1.132-.377-1.006-.5-.88-.754-.5-.754-.5-3.646-1.76,4.652-14.207,2.012,1.634,1.006,1.257,1.006,1.634,1.383,1.509,1.76,1.006,12.7,3.772,2.766.377,2.263-.377,2.137-1.132,1.509-1.509,1.886-2.137,1.383-.5h1.509l1.132-.88.88-2.263-.5-5.909-1.132-1.886-1.886-.754-2.137.5h-1.635l-1.509-.377-.88-.629-.5-.88-.251-.88-.251-.629-.377-.629-.251-.377-.377-.629.126-.629.754-1.132,6.286-7.041,1.635-2.515.629-2.515-.629-2.389-.754-1.76-3.395-4.652-1.257-1.132-.126-.126-.251-.126-.754-.251-1.257-.126-1.006.251-.5.251-.251.126-3.52,2.64-1.383.754-1.635.377-5.658-.251-7.921.754-1.006-.126-1.76-.754-.754-.377-2.515-.377-1.006-.629-.5-.754-.251-1.132-.629-4.652-2.137-9.43v-2.263l-1.383-5.909.126-2.263.88-1.886,2.137-1.634,2.64-.377,2.137.251,1.635.126,2.263-.754,2.892-1.634,6.286-6.915,3.143-2.515,1.509-.88,1.132-.377,1.635.629,2.263.251,3.52-.126,10.938-3.017,3.52-2.515,1.006.629,6.161,1.132,2.263,1.886,2.64,5.909,1.76,2.137,4.149,1.132,4.149-.754,10.813-3.143,5.532,3.269,6.035,2.389,4.4.88,2.012,3.395,5.783,19.488-1.634,26.654Z"/><path class="b" d="M1238.429,332.3l-.5,5.155-2.012,1.006-8.047-1.634-1.006-4.526-.377-2.64,3.143-3.646,3.772,4.778,3.52,1.383Z"/><path class="c" d="M1150.167,230.838,1146.9,223.8l.126-1.76.377-2.012,1.257-1.257.88-.88,2.137-1.383,3.646,1.76.754.5.754.5.5.88.377,1.006.126,1.132-1.132,2.892-6.538,5.658Zm-144.085-32.564,3.772-5.281h1.634l1.132,3.52,1.509.251,1.509-2.137,1.132-3.52,1.76,1.886,3.52-10.687,1.634-2.892.252.126,3.018,2.137,4.149.88,2.64,1.257,4.023,2.64,2.892,1.132,15.716,2.892,2.64,1.006,1.132,1.509-3.395,9.555-2.389,4.275-1.509,1.257-1.76.377-22-1.257-9.052-2.012-7.921-2.892-5.909-3.9-.126-.126Z"/><path class="b" d="M1162.614,345.88l6.664,4.778,14.333,13.076-6.035,14.082-1.76,5.658.377,3.9-.251,2.389-3.646-.5-8.047-6.412-7.669-19.865-9.681-8.8-1.886-4.275.88-3.646,4.526-1.383,3.646.88,3.395,1.76,6.161,4.526-1.006-6.161Z"/><path class="a" d="M1227.867,336.827l-4.275-.251-1.635,5.784-12.7-1.634-2.515-1.006-2.137-2.137-1.383-3.143.377-5.909,1.006-2.766.754-1.76V321.74l-1.132-3.646-3.395-7.921-5.155-8.424-.126-1.886.251-1.383,3.018-1.76,3.143.754,1.635,1.257,18.608,19.991,4.275,10.938.377,2.64Zm10.561-4.526-1.509-.126-3.52-1.383-3.772-4.778,2.137-7.921,1.509-1.383,1.383-2.137,1.006-3.9.377-2.515-.251-2.012-.88-1.132-.88-1.509-.377-1.76-.5-4.023-.629-2.389-.88-2.012-.88-1.509-.377-1.132.126-1.132,2.389-.629,2.263.126,13.83,3.143,1.509.251-.126,3.143,5.532,22.757-14.082,1.634-2.515,2.892-.88,9.43Zm-8.675-93.794-5.155,1.76-.88-7.669a3.222,3.222,0,0,1,1.383-1.509,4.416,4.416,0,0,1,2.263-.126s3.175.88,3.772,2.766-1.383,4.778-1.383,4.778Zm17.225-11.19-10.31-2.137-4.9-7.544-7.8-1.006.88-2.137.754-2.766,1.509-3.269,2.64-2.263,9.681-5.909L1250,190.6l1.132-.5.88,7.669-.377,2.137-2.012,3.646.251,2.64,2.64,4.652,1.132,2.892,1.257,1.886.88,2.263.126,1.634h-.377l-6.664,5.281-1.886,2.515Zm-109.635-15.465,4.149,6.286,3.52-7.669,1.257-6.538.88-2.766,1.886-1.132,1.76-.251,5.532,2.515-4.652,14.207-2.137,1.383-.88.88-1.257,1.257-.377,2.012-.126,1.76,3.269,7.041,2.892,8.675.126,1.634-.754,6.035-2.766,4.023-3.772,3.017-2.389,4.023V259.5l.377,1.509,1.006,1.509,3.269,3.646,1.383,2.012,1.006,2.012-.126,1.257-1.509,2.389-5.783,14.082-.5,3.772v3.395l.377,4.4.88,2.892,4.526,8.8,1.509,6.161-.126,2.766-10.561-1.634-10.058,2.64-9.052,5.784-8.55,7.921-7.921,10.058-2.64,8.927,2.137,22v5.406l-1.132,10.813.5,5.281,1.383,3.017-2.64.629h-10.687l-20.368-5.155,1.509-3.269.5-2.263.5-3.143.251-3.772-.126-4.9-1.257-8.927-3.018-12.07-.88-8.55v-6.664l-.377-2.137-.88-3.646-3.018-8.172-4.526-9.43-2.012-6.538.126-.377,1.509-3.017.88-1.257,1.257-1.383,3.269-2.892,1.509-1.634,1.006-1.76.5-1.76-.126-1.886-7.544-31.558-3.143-6.035-4.149-4.4-18.608-12.573-1.886-2.263-2.137-2.012-2.012-1.383-8.424-4.9-2.137-2.012-2.892-4.149-1.509-1.383-2.389.5-8.675,3.143-7.418.377-13.327-3.646-.5-.5,3.772-4.149,2.263-.88,4.023.126L988.857,215l.251-3.395,1.509-2.892,3.018-1.886,2.64,2.263,5.281-4.526,4.526-6.286.126.126,5.909,3.9,7.921,2.892,9.053,2.012,22,1.257,1.76-.377,1.509-1.257,2.389-4.275,3.395-9.555-1.132-1.509-2.64-1.006-15.716-2.892-2.892-1.132-4.023-2.64-2.64-1.257-4.149-.88-3.018-2.137-.251-.126.88-1.76,2.892-2.515-3.269-1.76,1.634-3.52,3.395-4.526.5-1.383.754.377,17.1,10.687,7.8,6.789,3.143,2.137,18.356,7.544,4.9,3.395,12.07,10.813,3.269,3.772,2.137,3.395,1.635,7.544,2.766,6.161,2.012,3.017,1.76,1.509,2.389,1.006,3.269.126,3.772-.126,3.52-.754,2.012-.754,3.017-1.634,3.772-1.132,1.886-.754,1.509-1.132.754-1.634.251-2.263-.377-2.515-.629-2.389-1.132-3.646.377-1.006.754-.754,4.778.126Z"/><path class="a" d="M118.185,535.856l-2.64,2.766-.88-.88-1.76-.754-.88-.754,1.132-2.012v-3.143l1.634-4.526,3.017-1.257,2.263,3.269-.126,1.132-.5.88.5,1.132-1.76,4.149ZM599.1,531.833l6.664,4.149,1.006.629,8.927,1.886,1.886.754,5.406,2.137,2.64,8.172L621.98,556.1l-7.921,2.766-9.3-.377-7.8-3.143.629-2.64-2.137-3.646-3.017-.88-2.766,5.406,2.012,1.76L584.513,560l-8.424,1.634-8.675-.88-7.8-3.269-4.526-2.515-2.64-.88-7.041-.5-4.652-.629-2.892-1.006-.126-2.263,4.023-4.023,3.395-2.137,6.412-2.389,2.766-1.383,4.9-4.4,3.269-2.263,1.132-.251,3.143-1.006h2.389l3.772,1.634,2.012.5,1.76-.88,6.161-5.029,7.167-3.143,2.892-1.634,2.263-3.018,1.383,3.52-.251.88-1.132,1.383,2.64,4.4,1.257,1.383Zm87.507-5.281-2.137,7.418-2.515-5.155L676.3,526.3l-6.538-1.886-5.658-3.269-2.892-7.418,3.646-5.909,5.658-2.389,1.257,1.132,2.263,1.886,6.538,7.418,3.269,3.646Zm12.7-8.675-2.137.629-2.892-.126-1.634-.88-4.4-5.281-3.269-2.263-2.515-1.132-.88-1.886,1.257-4.526,2.012-2.515,3.018-2.263,3.772-1.132,3.772.126,2.263,4.778,2.515,4.023,5.909,6.789-1.886,2.389-2.389,2.012Zm-427.226,4.275-4.275,4.275-3.395-3.646-2.892-4.9-3.017-6.789.5-5.658,4.275-4.9,3.269-4.778,6.286-3.646,6.035,1.886,2.892,4.526,1.383,7.418-.5,4.4-5.658,7.418-4.9,4.4Zm450.109-27.409.126,3.9-2.766,8.3-4.275,2.137L708.1,496.629l-.629-2.012,1.886-.251,2.892.754,2.515,1.509,1.132.629.377-1.257-.754-1.634-3.772-2.766-.88-2.766,3.395-.377,5.406,3.772,2.515,2.515ZM485.565,504.8l-10.184,4.778-4.9,3.143-6.161.88-3.772,2.766v3.143l-2.263,4.275-3.646-4.526-3.772-.377-4.778-2.515-2.64,4.275-9.933-1.509-3.646-.629-5.532,1.132-.88.377H422.7l-.629-1.509.126-1.76.88-2.012.88-1.76.88-.754,9.681,2.137,2.64-.629,6.664-3.017,1.383-1.257,1.383-1.006,8.675-3.395,4.778-2.263H462.3l2.515,4.526,2.64,1.383,2.263-1.132.5-3.143-.251-3.017-1.634-2.892,9.807-14.459,4.652-3.269.251,1.634,1.132,2.892.377,1.509,6.035,3.395-1.634,11.064-3.395,3.52ZM757.39,477.266l-3.52,1.257-6.915-1.257-12.447-4.149-12.447-3.9v-4.526l10.561-9.933,3.646-5.532h1.76l-1.76,6.035,1.886,5.281,4.652,3.646,9.681,5.029L757.139,474l.251,3.269ZM198.526,461.3l-3.143,1.509-3.772-2.137-1.383-1.76-1.257-.754-1.634-1.509-.251-3.9,2.263-3.143,2.012-3.395,2.892-1.76,5.909,4.023,1.76,6.915ZM44.508,427.226l1.132,2.515-.5,1.76-.126.88L43.879,434.9l-.629,2.137-1.383-1.006-.251-3.9.629-1.76-1.006.5-.126-1.006v-1.257l-.251.377h-.754l.126.5h-.251l.251,1.132L38.6,429.238l-.251-2.766,2.137-1.634,1.132.126,2.892,2.263Zm351.286-78.832-1.006,5.909-1.634-1.634-.377-1.383-2.137-2.766-1.383-3.646.754-2.137,4.778.754Zm674.409,47.4,20.368,5.155h10.687l2.64-.629,3.9,8.8.88,5.532-7.292,6.789L1099.75,431l-3.646,4.023-2.64,4.023.377,6.035,3.269,12.07-.629,15.465.754,4.4,1.76,2.012,5.155,3.52,2.012,2.515.629,2.515-1.006,13.83-1.635,4.149-10.058,18.1-2.137,5.029.377,4.275,3.143,1.634,16.345,3.646,4.4.251,14.584-6.035,7.8,3.269,4.149,10.31,3.017,12.07,9.681,17.6-2.892,4.526-16.47,4.023-30.3,12.447-4.9-.5-6.789-5.406-4.652.88-4.275,1.634-4.023.126-8.55-1.509-8.549-.251-7.418,1.383-7.167,3.018-7.669,4.149L1036.759,603,1025.7,607.27l-11.19,2.137-1.132,4.149,2.389,5.155,4.275,4.023,9.43,5.658,4.275,6.286,1.132,8.172.88,21.625-1.132,3.772-12.2,18.1-2.389,4.9-8.55,35.33-3.646,5.406-9.681,10.813h-.126l-4.778,7.292-3.018,9.555-5.406,28.289-5.784,17.476-24.769,43.628-8.047,27.283-1.006,8.424,1.634,41.365L944.1,967.357l-17.351,22.631-3.9.754-35.581-4.778-36.336-4.778-36.21-4.9-36.21-4.778-36.21-4.9-36.336-4.778-36.21-4.9-36.21-4.778-36.336-4.9L561,942.463l-36.21-4.9-36.21-4.778-36.336-4.9-36.21-4.778-36.21-4.9-36.21-4.778-36.21-4.9-41.993-5.532L259,900.847l-5.155-4.526-13.956-18.1-13.579-17.6-13.579-17.6-13.7-17.6-13.579-17.6-13.579-17.6-13.579-17.6-13.579-17.728-13.579-17.6-13.579-17.6-13.579-17.728L90.4,684.342,76.82,666.614l-13.7-17.6L49.537,631.284,35.958,613.556,22.38,595.829,7.544,576.466l-3.9-6.664-1.383-7.418.5-18.356.126-7.418L1.257,525.672,6.789,517.5l.251-12.573-4.526-10.31,5.155-5.909,2.137,4.9,5.658,8.172,1.006,5.658v16.47l1.76,10.058,3.646,2.389,3.772-4.023,2.515-12.95,1.76,3.52,2.64,8.927,1.634,2.892,1.257.754,2.389.251,2.263-.629,1.383-1.383.251-1.383-1.006-.5,5.029-12.321,4.9-3.772,5.406,8.172L56.7,530.2l-2.64,18.231.377,6.664,3.143,14.082.377,3.143-.377,9.555.629,3.143L60.6,590.8l.5,2.766,2.766,5.155,6.161,1.634,12.7.251,3.017,1.006L88.136,603l4.4,4.4,2.389,1.509h2.012l.754-1.257-1.509-2.263-.5-3.018,5.532-.88,14.962.88,1.76-.5,1.76.5,3.269,3.018,8.047,3.9,2.263-.126,10.938-2.012,4.652,1.257,2.515-1.509,2.64,1.509,4.023-1.886,4.526-.251,4.652.251,4.778-.251,4.275-1.634,9.933-6.161,4.4-.629,8.3-.126,3.52-1.006,3.017-2.515,3.143-3.269,3.52-2.892,3.646-1.257,4.275-.88,5.029-2.012,4.275-2.892,1.76-3.017,1.383-3.269,7.921-3.395,3.9-3.143,3.395-3.52,4.652-3.395,4.526-2.64,3.52-1.132,2.892-2.012.754-4.9.126-5.281.754-3.395L269.94,539l4.778,1.634,4.023,4.023,9.43,12.824,2.892,1.132,1.132-.754.754-1.509,2.389-1.006,5.784.251,10.687,3.143,5.658.754,3.395-.629,5.532-2.64,2.766-.88,3.017.126,2.263.629,1.886.88,1.886.5,22.128,2.012,2.515-.5,9.3-3.646,1.132-1.006.377-1.634.377-1.132,1.634-.126,1.383.88.88,1.257.754,1.132.5.629,7.669,6.412,4.778,2.263,10.435-4.526,5.281,2.012,4.9,2.64,4.526-.88-3.646-2.137-1.006-2.766-.126-3.269-.754-3.646,5.909-1.257,6.915,3.143,6.286,5.029,4.149,4.9,3.646,5.909,2.137,1.509,14.333.88,33.444-6.915h2.263l2.263,1.509,3.52,4.023,2.766,1.886,3.772.88,3.772-.251,3.017-1.509,4.778,3.646L517,576.341l2.389.754,1.132,1.006,3.269,5.281,1.886,1.634,2.137.377h3.017l2.892-.5,4.4-2.263,2.64.629,2.515,1.257,2.137.5,8.047-3.9,1.76-1.257,2.137-1.132,2.515.5,2.515,1.006,2.515.754,31.809.126,6.538-.754,2.766-2.389,16.093-8.8,16.345-2.64,5.281-2.766,5.406-1.006,6.915-3.269,7.921-1.132,2.766-.88,3.269-2.012,4.778-3.772,4.275-4.526,1.886-4.4,2.515-2.137,17.225-4.9,13.83-10.31,2.389-.377,2.012-3.52,5.029.251,10.561,4.275,2.012-3.143,9.555-7.544,4.9-6.915,10.31-20.62-1.383-7.167.754-3.395,4.275-2.137-2.389-1.634-1.257-.377V470.98l4.149.377,6.412,3.017,3.772.754-1.634-3.646-4.526-4.9-.88-3.395,3.9,1.76,4.149,1.257,3.772,1.76,2.389,3.017h1.634l-.754-7.544-4.9-2.389-6.915-.377-6.915-1.383-15.339-10.31-6.035-1.509v-1.76l3.143-.88,3.143-2.137,2.766-3.143.377,1.886.88,2.263,2.137,2.012-.754-2.892.88-2.64,3.395-4.4h1.76l2.137,7.921,5.029,7.669,6.412,4.9,6.161-1.006-1.509-.754-3.9-3.269,3.018.126,5.532,1.886,2.263.126.88-1.006,2.263-4.023,1.257-.88,9.807-19.739-4.275-1.886-2.012-2.515.88-2.263,4.526-1.006,2.766-1.76.754-3.9,1.509-4.023,4.778-2.263v-1.76L807.3,404.6l-1.132-2.892-.754-3.646-1.132-3.646,1.383-2.137-1.886-1.132L801.647,389l.754-4.652,2.389-2.64L815.1,374.8l1.257-2.012,1.257-2.64L819,368.511l8.047,3.772.5.377,3.772-.88,3.772-2.515,1.257-3.9-3.52-4.526,28.415-16.722,12.7-9.3,7.921-7.292,5.281-3.52,6.412-2.137.5-.126,2.263-.754.629-.251,2.263,3.017,32.061,92.788,2.766,5.532,3.143,4.149,5.155,1.634,5.281.629,55.321-2.263,7.167-1.509,7.921-2.892,17.476-10.184,28.792-11.819,5.909-4.023ZM344.12,268.682l.5,4.652-1.509-1.006-1.634-1.006-.251-5.281,2.892,2.64ZM695.029,241.9l2.263,10.058-3.395-1.634h-3.269l-4.275-5.029,3.395-5.029Z"/><path class="d" d="M1175.941,389.759l.251-2.389-.377-3.9,1.76-5.658,6.035-14.082,17.1-1.006-4.275,10.687-5.658,6.915-1.509,4.9-2.389,3.017-5.029,1.383-5.532.251Zm-264.156-89.9.754,2.263L907.51,305.4l-1.132-1.76,2.389-1.76-2.137,1.634.88.88,4.526-3.646-.377-.754-2.515,1.634,2.64-1.76Zm21.625-13.2-.126-.251-.126-.126-.126-.126v-.377l.377-.251.5-.5.251-.251.126-.251.126.126-.126.377-.377.377-.377.5-.126.251v.5Zm-4.9-1.634.754.126h1.383l1.006-.251.251.126.251.377.251-.126.126-.377v.377l-.126.126-.126.126-.88.251h-1.006l-.88.126-.88-.126-.629-.126-.377-.251-.5-.251-.377-.377v-.629l.251.251h.377l.754.5.377.126Zm9.178-4.149V281l-.251-.126V281l-.126.5-.126-.126h-.126l-.126.126v.126l-.251.126-.126-.126.629-.754.252-.377.126-.377.5-.126.251.251h.252v.126h-.252l-.251.251h-.251l-.126.251Zm-1.383,3.395-.251.126h-.126l-.251-.126h-.126l-1.634-1.509-.629-.377h-1.006l-.126-.126v-.126l.377-.629-.126-.126-.126-.377-.126-.251-.126-.126.126-.126v-.251h-.126l-.126.126-.126.5v2.137l.251.5v.126l-.126.126h-.251l-.126-.629-.126-.629.126-1.383v-.5l.126-.377v-.126l-.126.126-.251.377-.251,1.006-.126.629V283.9l-.126.126h-.126l-.251-.251v-.629l.126-1.006.377-1.257.377-.5.126-.251-.126-.126-.629.754-.5.88-.251.754-.126.629-.126.629v.377l-.251.126v-1.132l.251-.629.126-.5.377-.754.5-.88.251-.377.251-.126-.251-.126-1.006,1.132-.629.754-.251.5-.251.629-.126.377v.629l-.126.251h-.126l-.126-.126v-.5l.126-.754.251-.629.377-.754.5-.629,1.132-.88.126-.126v-.126h-.251l-.5.251-.754.5-.629.754-.5.629-.377.629-.251.5-.251.126-.126-.126H927v-.251l.126-.377.5-.629.629-.754.754-.629.88-.629.5-.126v-.126h-.126l-.5.126-.629.251-.754.377-.629.5-.5.5-.126.126-.251-.126v-.251l.251-.251,1.006-.754.88-.377.754-.251.251-.126-.126-.126h-.754l-.629.126-.5.126-.5.251h-.251v-.251l.251-.126.754-.251.629-.126h.629v-.126l-.126-.126H928l-.126-.126v-.251h.5l.126-.126-.126-.251v-.251l.126-.251h.126l.126.126h.251v-.629l.126-.126h.251v.629l.126.5.126.251.126.126h.126v-2.012l.126-.126h.126l.126.126-.126,1.006v1.509l.126.126h.126v-1.006l.252-.754.251-.754.629-1.006h.126l.251.126v.251l-.126.251-.5.629-.377.88-.126.5-.126.88v.251h.126l.126-.251v-.377l.377-.629.251-.5.5-.754.629-.754.377-.377.251-.126.251.126v.126l-.126.126-.5.377-.5.5-.377.629-.629.754-.251.88-.126.5h.126l.629-1.132.5-.5.754-.754,1.257-.754.377-.126h.251v.377l-.88.377-.88.5-.754.629-1.006,1.509v.126h.126l.629-.629.629-.754.754-.377.629-.377,1.006-.377.126.126v.251l-.126.126-.88.251-.629.251-.629.377-.754.629-.5.629v.251l.126-.126.5-.5.754-.377.88-.251.88-.251.251-.126h.251l.126.126v.251l-.126.126h-.5l-.754.126-.88.377-.88.377-.251.251-.126.251.629-.377.754-.377H935.3l.126.126v.126l-.126.126h-2.012l-.629.377L932.4,280v.126l.251.251h.126l.251-.126.251.251v.126h.251l.126-.126v-.126l.377-.5.126.126.126.629-.251.251.629.5.252.126.126-.126.126-.126v-.126h.252l.126-.251.251.251v.126l-.251-.126v.251l-.251.126v.377l.629.5.629.5.251.5v.126l-.126.251-.377.5Zm.754-4.652-.126.126h-.251l-.126-.126.126-.126.126.126.252-.126v-.126l-.377-.126v-2.012l-.126-.629-.252-.629-.5-.754-.251-.251v-.126l.377-.377.126.126.629,1.006.5,1.006.126,1.132v.88l-.126.88-.126.126Zm-2.64-6.035.88.377.251.126v.126l-.377.377-.5-.251-.629-.251-.754-.251h-1.76l-.377.126-.377.251-.377.377-.251.126h-.5l-.251.126-.377.377-.88.629-.629.88-.754.88-.377.629-.251.88-.377.754v.88l.126.88.126.88.251.629v.126l.126.251.126.126-.126.377-.126.251-.377-.377-.377-.5-.126-.629-.251-.88V279.5l.251-.88.5-.88,1.132-1.76.5-.629.5-.377.754-.629.629-.377,1.006-.5.5-.251h2.515l.5.126.5.251Zm1.132-13.076h.88l1.634-.126.754.126.629-.126.5-.251.251-.251.126-.377v-.88h.251V259l-.126.629-.251.5-.126.126-.5.251-.754.126h-3.269l-.629-.126-.5-.251-1.132-.377-.251-.126-.377-.377-.377-.754L931.9,258l.126-.126.251.629.5.88.251.251h.252l1.257.5.377.251.629.126Zm6.664-3.143-.126.126-.377-.126v-.251h.251l.126.126.126.126Zm.126,2.012-.629.251-.377.126h-.377v-.126l.629-.377h.629l.629-.377.754-.5.377-.251h.377l.126-.126.5-.251.126-.251.126-.251.252-.126h.126l.126.251-.126.126-.251.126-.251.126-.5.377-.377.251-.5.126-1.383.88Zm1.509-1.76-.126.126-.251-.126.126-.377.377-.126.126.126.126.126-.126.251h-.251Zm-1.509-.629-.126.126-.251-.126h-.126l.126-.126h.126Zm-.88.126v.126l-.251-.126-.126-.126.126-.126h.251v.251Zm-.377-.377h-.126l-.126-.126-.126-.126.126-.126.126.126.126.126Zm2.012,1.383h-.377v-.629l.126-.251.251-.377-.126-.251.126-.251.252-.126.5.251.251.251v.126l-.5.126-.377.126-.126.5v.5Zm-1.383-1.509-.126.126h-.126l-.126-.251v-.126l.251-.126.126.126v.251Zm.754-.126-.126.126h-.251v-.126l.126-.251h.377Zm-1.886-.126-.252-.126-.126-.126v-.251l.377.126.126.126Zm-4.149-.377h-.377v-.251h.126l.251-.126h.126v.126Zm4.9.251h-.126l-.252-.251-.377-.251.126-.126h.126l.377.251.126.251v.126Zm-4.023-.5h-.5v-.126l.377-.126.126.126v.126Zm-1.76.251H935.3l-.629-.377.126-.251h.126l.377.251h.251v.377Zm4.149-.126h-.251l-.126-.126.126-.126.126-.251h.126l.126.126v.126l-.126.251Zm1.634-.251h-.251l-.126-.251.126-.126.251.126v.251Zm-6.664-.126-.126.126-.5-.126-.126-.126V255.1h.126l.252.126h.251Zm4.4,0-.126.126h-.252v-.251l.126-.251h.377v.251Zm1.257-.126-.251-.126V255.1l.126-.251h.377l.126.126.126.126-.126.126-.377.126Zm-4.9-.377.126.126.126.126v.251l-.251-.126v-.126l-.126-.126h-.252v-.126l.126-.126h.126l.126.126Zm-.754,0v-.126h.126v.126Zm1.76,0-.251.251-.251-.251-.126-.126v-.126l.251-.126.251.126.126.251Zm3.395.126h-.251l-.251-.251V254.6l.126-.126.377.126v.251l.126.126-.126.126Zm-5.909-.5-.126.126h-.252l-.126-.126v-.126l.251-.126h.126l.126.251Zm6.286,0-.126.126-.126-.126.126-.251h.251l.126.126-.251.126Zm1.006.251-.126.126h-.126V254.6l-.126-.126.126-.126.126.126Zm-6.789,0h-.251V254.6l.251-.377h.251l-.126.251h-.126v.377Zm4.149,0-.126.126-.126-.126-.126-.251.377-.251.126-.126.126.251v.126Zm-3.143-.5-.126.126h-.377l-.126-.251.126-.126h.377l.126.126v.126Zm2.515.126h-.251l.126-.126.252-.251h.126v.126l-.251.251Zm1.257,0h-.126l-.126-.126v-.377h.251l.251.126v.126l-.126.126-.126.126Zm-2.766-.126-.126.126-.126-.126-.251-.126H935.8l-.126-.126v-.251h.377l.251.251.126.126v.126Zm-2.263-.251-.126.126-.251-.126v-.126l.126-.126h.126l.126.251Zm4.4-.126h-.126v-.126l.126-.126h.126v.126Zm1.257.126H939.7v-.251l.251-.126h.251v.251l-.126.126h-.252Zm-5.029-.251-.126.126-.251-.251.126-.251h.126l.126.126v.251Zm5.909.126h-.126l-.252-.251-.126-.251h.126l.126-.126.251.251.126.251Zm-5.406-.251h-.126l-.126-.126v-.126l.126-.126.126.126h.126l-.126.251Zm1.383.377h-.126v-.377l.126-.126-.126-.126v-.251h.126l.126.126.126.126-.126.126.126.126v.251l-.252.126Zm-.88-.629h-.251v-.251h.126l.252.126v.126H935.8Zm-2.263.251h-.126v-.5l.126-.126h.251l.126.251-.126.251Zm.754-.251-.126.126-.126-.251.252-.251.126-.126.251.126-.126.251-.251.126Zm2.515-.377-.377-.126v-.126h.126v-.126h.251l.126.126v.126Zm-.754.126h-.126l-.126-.126v-.377h.251v.5Zm-2.137-.377h-.251l-.252-.126-.126-.251v-.126h.377l.251.251v.251Zm1.634-.126-.126.126-.126-.126-.126-.126v-.251h.377l.126.126-.126.251Zm-1.132-.377v.126l.251-.126.126.126-.126.251h-.251l-.126-.126-.251-.251v-.126h.251Zm2.64,0-.126.126-.252-.251-.126-.126h.5l.126.126-.126.126Zm4.149.126-.251.126h-.126v-.377l.251-.126h.126v.377Zm-4.9-.5.126.126-.126.251-.252-.126v-.126l-.377-.126.126-.126h.377l.126.126Zm7.041.251.251.126h.377l-.126.251h-.251l-.251-.126-.251-.126h-.126l-.126-.126v-.126l.251-.377.251.126v.377Zm-8.55-.126h-.126l.126-.251.251-.126h.126l.126.251h-.377Zm7.921-.126h-.629v-.251l.629.126v.126Zm1.634.251h-.377l-.126-.126v-.126l.126-.251h.126l.251.377Zm0,0,.126-.126v-.126l-.126-.126.126-.126h.126v.5l.251.126v.126l-.251.251h-.126l-.126-.251v-.251Zm-10.813-.126-.126.126-.126-.126-.251-.251.126-.126.126-.126.251.251v.251Zm7.041-.126h-.126l-.251-.251.126-.126h.5l.126.251-.251.126Zm1.132,0h-.251l-.251-.126.126-.126.5-.126.126.126-.251.251Zm-6.664-.5-.126.126h-.126v-.126l.126-.251.126.126h.126l-.126.126Zm9.43,0-.251.126-.252-.126v-.126l.126-.126h.251l.126.251Zm-10.184.251h-.251l-.126-.126v-.377h.629v.126l-.126.126-.126.251Zm9.3,0h-.126l-.126-.251v-.126l.251-.251.126.126v.377l-.126.126Zm-9.933-.377-.126.126h-.251v-.251l.251-.126.126.126Zm6.412.5h-.251l-.126-.251v-.251l.126-.251h.126v.251l.126.251v.251Zm3.143-.5h-.377l-.126-.251.126-.126h.251l.251.126Zm-2.263-.5.126.126h.377v.377l-.126.126h-.251v-.251h-.5v-.251l.377-.126Zm1.509.251-.126.126-.126-.126.126-.377.126-.126.251.126v.251Zm1.257-.5-.126.377v-.126l-.251-.126v-.126l.126-.126h.126l.126.126Zm.629.377H944.1l-.126-.126v-.377h.126l.251.251v.251Zm-4.149,0h-.126l-.126-.251v-.126l.251-.126h.251l.126.377-.377.126Zm7.167.754h-.126v-.126l.377-.629.252-.377.251-.126.126.126v.251l-.377.251-.252.377-.251.251Zm-5.406-.88-.126.126h-.126l-.126-.251-.126-.251.126-.126h.126l.251.251v.251Zm-5.406,0h-.5v-.5l.126-.126.251.126.126.5Zm-.754-.126h-.251l-.251-.251v-.126l.126-.126h.126l.126.126.126.251v.126Zm3.646-.126-.252.126-.251-.126V250.2l.377-.126.251.251-.126.251Zm5.532.251h-.126l-.251-.377v-.377h.251l.377.629-.126.126h-.126Zm-3.646-.5-.126.126-.126-.251v-.126h.126Zm1.634.126-.126.126-.251-.126-.126-.251v-.126l.126-.126.251.126Zm-9.555,0v-.5h.251v.126l-.126.251-.126.126Zm9.933-.377-.126.126h-.251v-.251h.251l.126.126Zm-1.634-.251.251.126v.377h-.126l-.126-.126v-.377Zm-6.915.5-.126-.251v-.251h.126l.126.126v.251l-.126.126Zm3.52-.377-.126.251-.126-.126-.251-.251.126-.126h.251l.126.251Zm-5.281.251h-.126v-.377l.126-.126h.251v.5h-.251Zm2.137-.251v.126l-.251-.251-.126-.126v-.251h.126l.251.251.126.251Zm1.006.126h-.126l-.251-.126-.126-.377.126-.126h.251l.126.377v.251Zm6.664-.251h-.5v-.251l.126-.126h.377l.126.251v.126Zm-8.549.126h-.377V249.7l.251-.251h.251v.251l-.126.251Zm6.789-.126h-.126v-.251l.126-.126h.126l.126.126-.126.251Zm-1.634.126h-.377l-.126-.126v-.377h.377l.126.126.126.251Zm.5,0-.126.126-.126-.251v-.377h.251v.5Zm1.76-.126-.126.126h-.126l-.126-.126.251-.377h.126l.126.126-.126.251Zm5.658-.5.126.251h.377l.251.126.126.126-.126.126h-.251l-.126.126-.251.377-.126.5-.251.5-.754.5-.126.251v.377l-.251.629v1.006l.251.251-.126.126-.126.126-.126-.126-.251-.251v-.88l.126-.251.126-.377v-.5l.126-.377,1.006-.88.126-.251v-.377l.251-.629V249.7l-.251.251h-.126V249.7l.126-.377Zm-11.944.251-.251-.126.126-.126h.126l.126.126-.126.126Zm3.143.126h-.126l-.377-.126-.126-.251v-.126h.629v.5Zm1.76-.251H940.2v-.251h.126v.251Zm-6.789,0-.126.126-.126-.126v-.251l.126-.126h.377v.251Zm9.933.126-.251-.126-.126-.126v-.126l.251-.126h.126v.5Zm1.132-.251h-.251l-.251-.126v-.126l.251-.126.377.126v.126Zm-4.526,0-.377-.126.126-.126.126-.126h.126l.126.126-.126.251Zm-5.658-.126h-.126l-.126-.126v-.126l.251-.126h.251v.377h-.251Zm4.652.126h-.126v-.377l.126-.126.126.126v.377Zm-6.161,4.275.126.126v.251h.251v.126l-.251.126v.251l-.377.377-.126.251.126.251.126.126-.126.126h-.377l-.126.377.126.126v.126l.251.126.251-.126.251-.126.251-.126.126.251-.126.377-.251.126h-.754l-.126.126h-.126l-.126-.377v-.251l-.251-.126h-.377v-.251h.377v-.126l-.377-.126.126-.126.251.126h.126l.126-.251v-.377l-.126-.126-.126-.126v-.251h.126l.251.251.377-.377v-.377l-.126-.251H931.9l.251.377-.126.126-.251-.251-.126.126-.126.126h-.251l.126-.5v-.5l.126-.629.126-.251-.377-.629v-.251l.126-.251.126-.377-.126-.377-.126-.251.126-.377.126-.251.126-.251v-.5h.251l.377.126.126.126-.126.251-.252.126.126.377-.251.126-.126.377.251.251.5.251.251.126-.126.251h-.377l-.126.126.126.377.251.251-.126.377-.251.251v.251l.126.377.377.377h.252Zm2.137-4.4h-.126v-.251l.126-.126h.252v.251l-.252.126Zm1.132.126h-.126l-.377-.251v-.251l.377-.126.126.126.252.251Zm8.927-.251-.126.126-.126-.126v-.377h.377v.126l-.126.251Zm-3.143-.251.126-.126.251.126v.126h-.377Zm-2.263.126-.126.126-.126-.126.126-.251h.126l.126.126-.126.126Zm1.76,0h-.251v-.377h.251v.377Zm3.143-.126h-.126l-.126-.126v-.126l.377.126-.126.126Zm-1.76.126-.126.126-.252-.126v-.126h.252l.126-.251h.126l.126.126-.126.126-.126.126Zm-.88-.126-.126.126-.126.126-.126-.126.126-.251.126-.126h.126v.251Zm-1.006,0v.126l-.126-.126v-.377h.126l.126.126Zm-6.035-.126v.126l-.251-.126-.126-.251h.252l.126.126v.126Zm-1.132,0h-.251v-.251h.251l.126.251Zm5.029.126h-.126v-.5l.126-.126.126.126v.377l-.126.126Zm8.424,6.538-.88.629.754-.754.251-.5.252-.251.5-.88.629-.88.126-.5v-.5l.126-.377.126-.251.5-1.132.251-.5.126-.88v-.377h.126v.377l-.126.88-.251.5-.629,1.257-.126.5v.5l-.126.629-.629.88-.5.88-.5.754Zm-13.83-6.789-.126.126-.126-.126.126-.377h.126l.126.126Zm.754,0h-.251v-.5h.251l.126.126v.251l-.126.126Zm-1.132-.126-.251.126-.126-.251.126-.251h.377v.126l-.126.251Zm6.538.126h-.126l-.377-.377v-.126h.251l.251.251v.251Zm1.132.251h-.126l-.251-.251-.251-.126v-.377l.251-.126v.377l.377.251v.251Zm1.006-.5h-.377l-.126-.251.251-.126h.126l.126.126Zm-.629-.126-.126.126-.251-.126v-.126l.251-.126.126.126Zm1.886-.126v.377h-.126l-.126-.251-.126.126-.126.126-.126-.126h-.251l-.251-.126.126-.251h.126l.126.126v.126h.126v-.251h.126l.126.126h.126v-.126h.251v.126Zm-7.418.5-.126.126-.126-.126-.5-.377-.126-.126.126-.126.126-.126.377.251.377.126.126.126.126.126h-.251l-.126.126Zm4.4-1.006.126.126v.126h-.251l-.377-.126h-.251l-.126-.126.126-.126h.5Zm-5.155.126-.251.377-.377-.251h-.126l-.377.251-.251-.126.126-.126h.377l.126-.126.126-.251h.252l.251.126.126.126Zm3.269.629h-.251l-.126-.5v-.377h.126l.126.126v.251l.251.126v.251l-.126.126Zm2.515-.377h-.126l-.126-.126.126-.377h.126l.126.126v.126Zm3.9,0h-.126l-.251-.251v-.126l.126-.126.251.126v.377Zm-10.687-.377h-.251l-.126-.126.126-.251h.251l.126.126v.251Zm8.172,0-.251.126h-.251l-.126-.126.377-.251.377-.126.126.126v.251h-.251Zm3.52,0h-.251v-.126l.126-.251.126-.126.126.126-.126.377Zm-12.7.126h-.126l-.126-.126v-.251l.126-.251h.377v.126h-.126v.377l-.126.126Zm8.424-.251h-.251v-.377l.126-.126h.251v.377Zm2.892.377v.251l-.377-.126-.126-.126-.251-.126h-.126l-.126-.377-.126-.251.251-.126.126.377.126.126.5.251.126.126Zm-1.132-.5-.126.251h-.251l-.126-.126v-.5h.251l.126.126Zm2.137-.251-.251.126H944.6l-.126-.126.126-.126h.377l.126.126Zm-1.257.251v.126h-.126l-.252-.251.252-.251h.126v.377Zm-3.646,0-.126.126-.251-.126-.251-.251v-.251h.251l.377.251v.251Zm6.412-.5v.126h.251l-.251.629.251.251-.126.126-.251-.126-.377.126v-.251l.251-.251v-.629h.251Zm-8.047.126h-.251l-.126-.126.126-.126h.251v.251Zm-4.4.126-.251-.126-.126-.126.126-.126h.377l.126.126-.251.251Zm4.652,1.006h-.251l-.126-.251-.126-.251.126-.251.251-.251v-.377l.251-.126.251.126.126.126v.126l-.126.126-.126.126-.126.126v.629l-.126.126Zm3.143-1.257-.126.126h-.126l-.126-.126v-.251l.126-.126.251.126v.251Zm3.018-.126h-.5l-.126-.126.126-.126h.377l.126.251Zm-7.167.126-.126.126h-.126v-.377l.126-.126h.252l-.126.377Zm2.892.251h-.126l-.251-.377-.126-.126v-.126h.126l.126.126.251.251v.251Zm1.76-.377-.126.126-.126-.126V246.3h.251v.377Zm-1.383,0h-.251V246.3h.251l.126.126Zm2.012,0h-.251V246.3l.377-.126h.126l.126.251-.126.251h-.251Zm.88-.251h-.251l-.126-.126v-.126h.754v.251Zm-4.023-.126-.251.126-.126-.126-.126-.126v-.251h.377l.251.251-.126.126Zm2.766-.251v.126h-.251l-.126-.251V245.8h.251l.126.126v.126Zm4.149,0,.126.126.126-.126h.126l.251.251.251.126h.251l.377-.251h.126l.126.126.126.126h.5v.251l-.126.251-.251.126-.126-.126.377-.251v-.126h-.377l-.251.251-.377.126-.252.126-.251-.126v1.006l-.251.377h-.126l-.126-.126h-.126l.126-.377v-.5l.126-.251h.251v-.377l-.251-.126-.5-.126-.251.126-.126-.126v-.251h-.251l.126-.126h.251l.126-.251h.251v.251Zm-6.161,0-.251.126H940.2v-.251l.251-.126.126-.126h.251v.251Zm3.646-.251-.126.126-.252-.126-.126-.251h.5v.251Zm-2.64.126-.251.126-.126-.126v-.251l.251-.126h.251l.126.126-.251.251Zm1.886-.126-.377.126-.126-.251v-.126l.251-.126h.377l-.126.377Zm-3.395,0h-.251l-.126-.126v-.126l.126-.126h.251l.126.126-.126.251Zm2.263-.126h-.251v-.251h.629v.126Zm2.64.126-.126.126-.251-.126-.126-.126V245.3h.251l.126.251.126.251Zm-6.035.5h-.377v-.126l.126-.377.126-.377.126-.126h.377l.126.126v.251l-.251.126-.126.126v.377h-.126Zm-.5-.754h-.251l-.126-.251v-.126h.126l.251.126Zm5.909-.377v.126h-.5v-.126l.251-.126Zm-4.023-.126.251.126h.5l-.126.251-.126.126-.126-.251h-.251l-.251-.126v-.126Zm4.778.126h-.5v-.251l.377.126Zm2.137-.251.251.126h.5l.251.126.377.251.126.251v.377h-.126l-.251-.251-.5-.251-1.006.126-.126-.5v-.126l-.126-.126-.377.5h-.5l-.126.126.126.251v.377l-.251-.126h-.126v-.5l.126-.126.251-.126h.251l.251-.126.126-.126v-.126h-.252l-.377.126h-.126l.126-.126.377-.126h1.006l.126.126Zm-2.892-.126.126.126h-.377l-.251-.126Zm-1.509.377-.251-.126v-.126l.126-.251.126.126v.377Zm2.389-.377h-.126l-.251-.126v-.126h.377v.251Zm-4.4-.251h.377l.126.126.126.126.251.126h.377l.251-.5h.126v.251l-.126.377-.377.126h-.251l-.88-.5-.377-.126h-.126l.126-.251.251.126.126.126Zm-1.006.377h-.126v-.629h.126l.126.126.126.126v.251l-.251.126Zm3.646.126h-.251l-.126-.377v-.377h.377l.126.251v.377Zm4.778-.88.377.251h.126l.252.377v.251l.126.126.251.377-.126.126h-.126l-.126-.251L949,245.3v-.377l-.251-.251-.251-.251-.251-.126-.754.126-.377.126.126-.126.251-.126.629-.126h.251Zm-6.286.251h-.251v-.126l.377-.251.126.126v.251h-.251Zm-2.515.629h-.377v-.88l.251-.126h.126l.126.251-.126.629v.126Zm-1.509,0h-.251l-.126-.377.126-.5.126-.251.126.126.126.251-.126.126v.629Zm6.035-.754h-.126l-.251-.126v-.251h.126l.251.126Zm-.754-.377-.377.251h-.251v-.251l.251-.126h.251Zm-1.886.126h-.377v-.377l.126-.126h.377v.251l-.126.251Zm.754-.251v.126l-.251-.126h-.126v-.251h.126l.251.126v.126Zm-1.634.126-.377-.126v-.126l.126-.126.377-.126.126.126h.126v.251h-.126l-.251.126Zm-.88-.251h-.377v-.251h.252l.126.126Zm1.509-.251h-.252l-.126-.126.126-.126.126-.126.126.126v.251Zm1.132-.126h-.126l-.126-.126v-.126h.377v.251h-.126Zm1.383-.126.251.251-.126.126h-.126l-.126-.126-.126-.126h-.126l-.126.251h-.629v-.251h.251l.377-.126.126-.251h.251l.126.251Zm-1.76,0h-.126l-.377-.126v-.126l.126-.126.251.126.126.126Zm2.892.5H944.6v-.5l-.126-.126v-.251h.251l.126.251.126.126v.251Zm-5.909-.126-.252.126h-.377l-.126-.377.126-.5h.126l.5.126.126.126v.251l-.126.251Zm3.772-.754-.126.126-.251-.126v-.251l.251.126Zm1.509-.126v.126h-.251l-.126-.126-.251-.251h.377Zm3.395-.126.251.126v.126l-.126.126-.377-.251h-.251v.251l.126.126.377.251-.126.126h-.126l-.377-.377-.377-.377-.126-.251v-.126h.88l.252.251Zm-8.047.251h-.251l-.251-.126-.126-.126v-.251l.126-.126.251.126.251.377Zm3.395-.251h-.126l-.252-.126v-.251l.126.126.126.126.126.126Zm-2.137.251-.126.126-.126-.126h-.251l-.251.126-.252.251-.251.126v-.251l.251-.377.252-.5h.377Zm1.257-.377-.126.126h-.251l-.126-.126v-.251h.126l.377-.126v.377Zm2.263-.126H944.1l-.126-.126v-.126h.251l.126.251Zm-.88,0h-.251l-.251-.126v-.126l.126-.251h.5v.251l-.126.251Zm-2.137.5h-.126l-.5-.629v-.126l.377-.377h.251l.251.126v.126l-.126.126-.377.377.251.377Zm-.5-1.006-.251.126-.126-.126.126-.126h.251Zm1.132-.251h.377v.377l-.126.126-.252-.126-.126-.126v-.126l.126-.126Zm2.012.377h-.126l-.126-.126V241.4h.251l.126.126v.251l-.126.126Zm-12.7,16.722v.126h-.126l-.377-.251-.251-.5-.88-1.76-.5-1.509-.126-1.006v-1.006l.251-1.132.251-.88.126-.754.251-1.257.377-.88.251-.754.126-.754.126-.629.377-.5.88-1.257.251-1.383.251-.88.377-.377.126-.251.5-.251h.126v.126l-.252.126-.377.251-.126.251-.5,1.383-.126.5-.126.629-.5.629-.377.629-.251.5-.126.5-.251.754-.377.88-.377.88-.126,1.132-.126.754-.377,2.137-.126,1.006.251.88.5,1.509.377.88.629,1.006.377.5Zm18.734-10.938-.126-.126.251-1.006v-.5l-.126-1.006-.251-.754-.251-.88-.251-.88-.251-.5-.629-.629-.5-.5-.754-.5.126-.126,1.257,1.006.629.754.251.5.252.88.251.754.251.88.126,1.132-.126.754-.126.754Zm-8.047-6.161h-.251l-.251-.126.126-.251.251-.126.377-.251.629-.126.629-.5h.251l.251.126.251.377-.126.126-.88.629-.251-.126-.251-.251h-.126v.126l.251.377h-.251l-.251-.251-.251.126-.126.126Zm-.88-.377-.5.126-.126-.126-.126-.126.126-.377.377-.629h.252l.126-.251h.629v.251l-.251.126-.252.126-.126.377Zm1.509-3.269,1.006.251,1.006.126.754.251.754.251.629.251.629.251.5.251v.126h-.126l-1.257-.5-1.132-.5-.754-.126-2.137-.5-.5-.126h-.5l-.5.126-.5.126-.88.251-.754.377-1.006.377-.629.251-.5.5-.629.5-.754.754-.629.5-.629.377h-.126V241.9l.629-.251.754-.629.754-.754.5-.5.629-.5.5-.251,1.006-.377.88-.377.754-.377.629-.126h.5l1.132.126ZM1070.2,395.794l-5.909,4.023L1035.5,411.636l-17.476,10.184-7.921,2.892-7.167,1.509-55.321,2.263-5.281-.629-5.155-1.634-3.143-4.149-2.766-5.532-32.061-92.788-2.263-3.017-.629.251-2.263.754-.5.126v-.377l-.126-.251-.251-.377-.377-.251-.5-.126h-1.132l-.5-.126-.629-.126-.126.251-.126.251.377.126.629.126.5.126h-.629l-.629-.126-.629-.126-1.257-.5-.5-.251-1.383-.88-.5-.5h-.252V318.6l.252-.126.126.126.5.5,1.257.88.629.251,1.257.5h.126v-.5l-.88-.377-.754-.377-.754-.377-.629-.629-.754-.754-.377-.5-.251-.377-.252.126-.251.126V319.6h-.126l-.126-.126.126-2.389.126-.126.629-.251.126-.251-.251-.5-.251.126h-.126l-.5-1.509v-.88l-.126-1.006.251-1.132.251-1.006L885,309.8l.629-1.132.754-1.006.629-.88.126-.377.377-.754.5-.5.754-.88.88-.377.88-.377h1.886l.629.126.126.126v.5l-.251.126-.5.126-.251.126-.126.251-.377.251-.5.126-.88.251-.5.5-.377.377-.377.126-1.006.377-.5.377-.629.629-.126.126v.126l.126.126v.251l-.126.251-.629.88-.5,1.006-.252.88v.629l-.126.5.126.754.126,1.383v.251l.251.5h.251l-.5.251v.126l.251.5h.126l.5-.251v.126l-.251.126.377.5.5.5.377.377,1.132.88.5.251,1.006.251,1.132.251h.88v.5h.126l.126.126.629.251.126.126h.126l.251-.251.126-.126.629.629.251.5h.377l.629-.126.377-.126.88-.377.754-.377v-.5l-.126-.126H896.7v-.377l-.5-.88-2.137-4.023V314.2l.377-.251-.251-.377-.377.251-.377.629-.251.754-.126.629v1.383l.126.5-.126.126H892.8l-.126-.126-.126-1.006.126-1.006.251-1.006.629-.88.126-.251v-.251h-.251l-.629.629-.629,1.132-.251,1.006-.126.754-.126.754-.251.126h-.126l-.126-.377.251-1.257.5-1.132.629-1.006.5-.629.251-.251v-.126l-.126-.126-.5.251-1.006.88-.629.754-.5,1.006-.251,1.257-.126.251-.251-.126v-.126l.251-1.383.5-.754.629-.88,1.257-1.132.5-.377v-.251h-.377l-.88.5-.629.5-.5.377-.754.88-.377.754-.126.754-.251.377h-.377v-.377l.5-1.257.5-.88,1.006-.88.5-.377.5-.251.88-.251.126-.126v-.251l-.126-.126h-.251l-.754.251-1.132.377-.629.377-.5.5-.629.5-.5.88-.252.251h-.251l-.126-.126v-.126l.251-.5.5-.629.88-.754,1.006-.629.629-.377,1.006-.126.5-.126v-.251l-.126-.126h-.5l-.629.126-1.006.251-1.509.754-.754.629-.251.251h-.251v-.377l.251-.377.88-.629,1.257-.5.88-.251.88-.126h.629v-.126l-.126-.251-.251-.126-.629-.126H890.16l-1.006.126-.754.251-.251.251h-.126l-.126-.251.126-.251,1.509-.377.754-.126h.88l.754.251v-.251l-.126-.126-1.509-.5-.754-.126-.5.126-.126-.251.126-.126h1.257l.754.126.377.126h.251l-.126-.251-.5-.377-.88-.251-.251-.251.126-.251.251.126.88.5.5.251h.126l.126-1.886.126-.126.126.126-.126,1.886v.126h.126v-.126l.377-.754.377-.629.5-.88h.377v.251l-.252.251-.377.629-.5,1.383v.5h.126l.629-1.257.377-.5.88-.88.629-.377h.126l.126.126v.251l-.377.251-.5.377-.5.629-.5.629-.377.754-.126.377v.251l.126.126h.126l.629-1.006.754-.754,1.257-.754.754-.377h1.006v.377l-.377.126-.88.126-1.006.5-.629.5-.629.5-.629,1.006-.251.251.126.251.126-.126.88-.754,1.006-.754,1.006-.5,1.257-.251.754-.126h.377l.126.126v.251l-.126.126H897.7l-.754.126-1.132.5-1.006.754-1.006.754v.251l.126.126h.126l1.006-.629.88-.5.629-.126,1.132-.126h1.132l.754.251.251.126.126.126-.126.251h-.251l-.377-.126-.5-.126-1.006-.126H896.7l-.754.251-.754.377-.88.629-.126.126.126.126h.126l.629-.251.88-.251.88-.126h1.76l.629.126.377.126.251.251.126.126-.126.126-.251.126-.629-.251-1.132-.251-.629-.126h-.377l-.88.126-.88.377-.5.251-.126.126.126.126,1.006-.126,1.383-.126,1.006.126.629.251.88.5.126.126v.251h-.5l-.629-.377-.629-.251-.88-.251-1.383.126h-.629l-.251.126v.126l.377.126.629-.126.5.126.754.126.88.5.754.377.377.377v.377l-.251.126-.251-.126-.754-.754-.754-.377-.5-.251-.629-.126h-1.006l-.126.126-.126.126.126.251h.126l.251-.126h.251l.377.88,2.137,3.9.126.251.377.126.126.126-.126.126-.377.377h-.126l.126.126.251.251.251-.126,1.132-.629.5-.377.126-.251-.126-.126-.126-.629.126-1.132v-.251l.377-.126.5-1.006-.377-.377v-.126l.251.126.377-.88.377-.88.377-1.132v-2.389l-.377-.629-.251-.629v-.126l.251-.126-.377-.629-.377.251v-.377l-1.383-1.383-.629-.377-.5-.377-.88-.251-.88-.251h-2.64v.126h-.126l.251-1.132h1.383l1.257.126,1.132.251,1.383.629.754.5,1.257,1.006.5.754.126.126-.251.126.377.629.629-.5.251.126h-.251l-.377.377.251.5.251.629.252,1.132v1.886l-.126.754-.126.377.5.251h.126l.126-.754.126-.754v-1.006l-.126-1.509-.251-.126v-.126l.251-.126h.126v.377l.126,1.509-.126,1.132-.126.754-.126.88-.754,1.634v.126h-.251v-.126h.126l.629-1.509v-.126l-.377-.126h-.126l-.377.88-.5,1.006-.5.126-.5.754v1.886l.126.251-.251.377.629-.377,7.167-4.275-1.383-5.909,8.675-1.76,1.132,1.006L936.3,284.273l26.655-34.2,1.257-4.652-.126-3.9,4.9-4.526,4.149.629,3.9,5.658,1.383,3.9-1.132,3.772-3.395,5.281,7.167-2.137,1.509-5.155-2.012-6.412-5.281-9.681-.754-2.389,1.509-2.515,4.023-4.4.5.5,13.327,3.646,7.418-.377,8.675-3.143,2.389-.5,1.509,1.383,2.892,4.149,2.137,2.012,8.424,4.9,2.012,1.383,2.137,2.012,1.886,2.263,18.608,12.573,4.149,4.4,3.143,6.035,7.544,31.558.126,1.886-.5,1.76-1.006,1.76-1.509,1.634-3.269,2.892-1.257,1.383-.88,1.257L1057,311.933l-.126.377,2.012,6.538,4.526,9.43,3.017,8.172.88,3.646.377,2.137V348.9l.88,8.55,3.018,12.07,1.257,8.927.126,4.9-.251,3.772-.5,3.143-.5,2.263-1.509,3.269ZM902.858,307.281l1.006.629.5.377.5.5h-.126l-.5-.377-.5-.377-.88-.754Zm-11.567,13.83.126-.126v.126l-.126.126Z"/><circle class="b" transform="translate(1250.498 234.107)"/><circle class="b" transform="translate(730.359 465.322)"/><circle class="b" transform="translate(658.567 798.252)"/></g></svg>