<svg xmlns="http://www.w3.org/2000/svg" viewBox="531.195 86 858.005 693.1"><defs><style>.a{fill:rgba(0,0,0,0.39);}</style></defs><g transform="translate(913 472.5)"><g transform="translate(-381.805 -386.5)"><path class="a" d="M28.833,1013.81a11.917,11.917,0,1,1-11.917-11.951A11.934,11.934,0,0,1,28.833,1013.81Z" transform="translate(-5 -667.269)"/><path class="a" d="M28.833,1017.31a11.917,11.917,0,1,1-11.917-11.95A11.934,11.934,0,0,1,28.833,1017.31Z" transform="translate(-5 -637.308)"/><path class="a" d="M32.333,1013.81a11.917,11.917,0,1,1-11.917-11.951A11.934,11.934,0,0,1,32.333,1013.81Z" transform="translate(24.867 -667.269)"/><path class="a" d="M32.333,1017.31a11.917,11.917,0,1,1-11.917-11.95A11.934,11.934,0,0,1,32.333,1017.31Z" transform="translate(24.867 -637.308)"/><path class="a" d="M32.333,1020.812a11.917,11.917,0,1,1-11.915-11.952,11.934,11.934,0,0,1,11.915,11.952Z" transform="translate(24.867 -607.349)"/><path class="a" d="M35.833,1020.812a11.917,11.917,0,1,1-11.915-11.952,11.934,11.934,0,0,1,11.915,11.952Z" transform="translate(54.734 -607.349)"/><path class="a" d="M35.833,1024.31a11.917,11.917,0,1,1-11.917-11.95A11.934,11.934,0,0,1,35.833,1024.31Z" transform="translate(54.734 -577.387)"/><path class="a" d="M39.333,1020.812a11.917,11.917,0,1,1-11.915-11.952,11.934,11.934,0,0,1,11.915,11.952Z" transform="translate(84.601 -607.349)"/><path class="a" d="M39.333,1024.31a11.917,11.917,0,1,1-11.917-11.95A11.934,11.934,0,0,1,39.333,1024.31Z" transform="translate(84.601 -577.387)"/><path class="a" d="M39.333,1027.81a11.917,11.917,0,1,1-11.917-11.95A11.934,11.934,0,0,1,39.333,1027.81Z" transform="translate(84.601 -547.426)"/><path class="a" d="M39.333,1031.31a11.917,11.917,0,1,1-11.917-11.95A11.934,11.934,0,0,1,39.333,1031.31Z" transform="translate(84.601 -517.465)"/><path class="a" d="M42.833,1020.812a11.917,11.917,0,1,1-11.915-11.952,11.934,11.934,0,0,1,11.915,11.952Z" transform="translate(114.467 -607.349)"/><path class="a" d="M42.833,1024.31a11.917,11.917,0,1,1-11.917-11.95A11.934,11.934,0,0,1,42.833,1024.31Z" transform="translate(114.467 -577.387)"/><path class="a" d="M42.833,1027.81a11.917,11.917,0,1,1-11.917-11.95A11.934,11.934,0,0,1,42.833,1027.81Z" transform="translate(114.467 -547.426)"/><path class="a" d="M42.833,1031.31a11.917,11.917,0,1,1-11.917-11.95A11.934,11.934,0,0,1,42.833,1031.31Z" transform="translate(114.467 -517.465)"/><path class="a" d="M42.833,1034.81a11.917,11.917,0,1,1-11.917-11.95A11.933,11.933,0,0,1,42.833,1034.81Z" transform="translate(114.467 -487.504)"/><path class="a" d="M46.333,1017.31a11.917,11.917,0,1,1-11.917-11.95A11.934,11.934,0,0,1,46.333,1017.31Z" transform="translate(144.334 -637.308)"/><path class="a" d="M46.333,1020.812a11.917,11.917,0,1,1-11.915-11.952,11.934,11.934,0,0,1,11.915,11.952Z" transform="translate(144.334 -607.349)"/><path class="a" d="M46.333,1024.31a11.917,11.917,0,1,1-11.917-11.95A11.934,11.934,0,0,1,46.333,1024.31Z" transform="translate(144.334 -577.387)"/><path class="a" d="M46.333,1027.81a11.917,11.917,0,1,1-11.917-11.95A11.934,11.934,0,0,1,46.333,1027.81Z" transform="translate(144.334 -547.426)"/><path class="a" d="M46.333,1031.31a11.917,11.917,0,1,1-11.917-11.95A11.934,11.934,0,0,1,46.333,1031.31Z" transform="translate(144.334 -517.465)"/><path class="a" d="M46.333,1034.81a11.917,11.917,0,1,1-11.917-11.95A11.933,11.933,0,0,1,46.333,1034.81Z" transform="translate(144.334 -487.504)"/><path class="a" d="M46.333,1038.31a11.917,11.917,0,1,1-11.917-11.95A11.934,11.934,0,0,1,46.333,1038.31Z" transform="translate(144.334 -457.543)"/><path class="a" d="M49.833,1017.31a11.917,11.917,0,1,1-11.917-11.95,11.934,11.934,0,0,1,11.917,11.95Z" transform="translate(174.201 -637.308)"/><path class="a" d="M49.833,1020.812a11.917,11.917,0,1,1-11.915-11.952,11.934,11.934,0,0,1,11.915,11.952Z" transform="translate(174.201 -607.349)"/><path class="a" d="M49.833,1024.31a11.917,11.917,0,1,1-11.917-11.95,11.934,11.934,0,0,1,11.917,11.95Z" transform="translate(174.201 -577.387)"/><path class="a" d="M49.833,1027.81a11.917,11.917,0,1,1-11.917-11.95,11.934,11.934,0,0,1,11.917,11.95Z" transform="translate(174.201 -547.426)"/><path class="a" d="M49.833,1031.31a11.917,11.917,0,1,1-11.917-11.95,11.934,11.934,0,0,1,11.917,11.95Z" transform="translate(174.201 -517.465)"/><path class="a" d="M49.833,1034.81a11.917,11.917,0,1,1-11.917-11.95,11.933,11.933,0,0,1,11.917,11.95Z" transform="translate(174.201 -487.504)"/><path class="a" d="M49.833,1038.31a11.917,11.917,0,1,1-11.917-11.95,11.934,11.934,0,0,1,11.917,11.95Z" transform="translate(174.201 -457.543)"/><path class="a" d="M49.833,1041.81a11.917,11.917,0,1,1-11.917-11.95,11.934,11.934,0,0,1,11.917,11.95Z" transform="translate(174.201 -427.582)"/><path class="a" d="M53.333,1017.31a11.917,11.917,0,1,1-11.917-11.95A11.934,11.934,0,0,1,53.333,1017.31Z" transform="translate(204.068 -637.308)"/><path class="a" d="M53.333,1020.812a11.917,11.917,0,1,1-11.915-11.952,11.934,11.934,0,0,1,11.915,11.952Z" transform="translate(204.068 -607.349)"/><path class="a" d="M53.333,1024.31a11.917,11.917,0,1,1-11.917-11.95A11.934,11.934,0,0,1,53.333,1024.31Z" transform="translate(204.068 -577.387)"/><path class="a" d="M53.333,1027.81a11.917,11.917,0,1,1-11.917-11.95A11.934,11.934,0,0,1,53.333,1027.81Z" transform="translate(204.068 -547.426)"/><path class="a" d="M53.333,1031.31a11.917,11.917,0,1,1-11.917-11.95A11.934,11.934,0,0,1,53.333,1031.31Z" transform="translate(204.068 -517.465)"/><path class="a" d="M53.333,1034.81a11.917,11.917,0,1,1-11.917-11.95A11.933,11.933,0,0,1,53.333,1034.81Z" transform="translate(204.068 -487.504)"/><path class="a" d="M53.333,1038.31a11.917,11.917,0,1,1-11.917-11.95A11.934,11.934,0,0,1,53.333,1038.31Z" transform="translate(204.068 -457.543)"/><path class="a" d="M53.333,1041.81a11.917,11.917,0,1,1-11.917-11.95A11.934,11.934,0,0,1,53.333,1041.81Z" transform="translate(204.068 -427.582)"/><path class="a" d="M56.833,1017.31a11.917,11.917,0,1,1-11.917-11.95A11.934,11.934,0,0,1,56.833,1017.31Z" transform="translate(233.935 -637.308)"/><path class="a" d="M56.833,1020.812a11.917,11.917,0,1,1-11.915-11.952,11.934,11.934,0,0,1,11.915,11.952Z" transform="translate(233.935 -607.349)"/><path class="a" d="M56.833,1024.31a11.917,11.917,0,1,1-11.917-11.95A11.934,11.934,0,0,1,56.833,1024.31Z" transform="translate(233.935 -577.387)"/><path class="a" d="M56.833,1027.81a11.917,11.917,0,1,1-11.917-11.95A11.934,11.934,0,0,1,56.833,1027.81Z" transform="translate(233.935 -547.426)"/><path class="a" d="M56.833,1031.31a11.917,11.917,0,1,1-11.917-11.95A11.934,11.934,0,0,1,56.833,1031.31Z" transform="translate(233.935 -517.465)"/><path class="a" d="M56.833,1034.81a11.917,11.917,0,1,1-11.917-11.95A11.933,11.933,0,0,1,56.833,1034.81Z" transform="translate(233.935 -487.504)"/><path class="a" d="M56.833,1038.31a11.917,11.917,0,1,1-11.917-11.95A11.934,11.934,0,0,1,56.833,1038.31Z" transform="translate(233.935 -457.543)"/><path class="a" d="M56.833,1041.81a11.917,11.917,0,1,1-11.917-11.95A11.934,11.934,0,0,1,56.833,1041.81Z" transform="translate(233.935 -427.582)"/><path class="a" d="M60.333,1017.31a11.917,11.917,0,1,1-11.917-11.95A11.934,11.934,0,0,1,60.333,1017.31Z" transform="translate(263.802 -637.308)"/><path class="a" d="M60.333,1020.812a11.917,11.917,0,1,1-11.915-11.952,11.934,11.934,0,0,1,11.915,11.952Z" transform="translate(263.802 -607.349)"/><path class="a" d="M60.333,1024.31a11.917,11.917,0,1,1-11.917-11.95A11.934,11.934,0,0,1,60.333,1024.31Z" transform="translate(263.802 -577.387)"/><path class="a" d="M60.333,1027.81a11.917,11.917,0,1,1-11.917-11.95A11.934,11.934,0,0,1,60.333,1027.81Z" transform="translate(263.802 -547.426)"/><path class="a" d="M60.333,1031.31a11.917,11.917,0,1,1-11.917-11.95A11.934,11.934,0,0,1,60.333,1031.31Z" transform="translate(263.802 -517.465)"/><path class="a" d="M60.333,1034.81a11.917,11.917,0,1,1-11.917-11.95A11.933,11.933,0,0,1,60.333,1034.81Z" transform="translate(263.802 -487.504)"/><path class="a" d="M60.333,1038.31a11.917,11.917,0,1,1-11.917-11.95A11.934,11.934,0,0,1,60.333,1038.31Z" transform="translate(263.802 -457.543)"/><path class="a" d="M60.333,1041.81a11.917,11.917,0,1,1-11.917-11.95A11.934,11.934,0,0,1,60.333,1041.81Z" transform="translate(263.802 -427.582)"/><path class="a" d="M63.833,1017.31a11.917,11.917,0,1,1-11.917-11.95A11.934,11.934,0,0,1,63.833,1017.31Z" transform="translate(293.669 -637.308)"/><path class="a" d="M63.833,1020.812a11.917,11.917,0,1,1-11.915-11.952,11.934,11.934,0,0,1,11.915,11.952Z" transform="translate(293.669 -607.349)"/><path class="a" d="M63.833,1024.31a11.917,11.917,0,1,1-11.917-11.95A11.934,11.934,0,0,1,63.833,1024.31Z" transform="translate(293.669 -577.387)"/><path class="a" d="M63.833,1027.81a11.917,11.917,0,1,1-11.917-11.95A11.934,11.934,0,0,1,63.833,1027.81Z" transform="translate(293.669 -547.426)"/><path class="a" d="M63.833,1031.31a11.917,11.917,0,1,1-11.917-11.95A11.934,11.934,0,0,1,63.833,1031.31Z" transform="translate(293.669 -517.465)"/><path class="a" d="M63.833,1034.81a11.917,11.917,0,1,1-11.917-11.95A11.933,11.933,0,0,1,63.833,1034.81Z" transform="translate(293.669 -487.504)"/><path class="a" d="M63.833,1038.31a11.917,11.917,0,1,1-11.917-11.95A11.934,11.934,0,0,1,63.833,1038.31Z" transform="translate(293.669 -457.543)"/><path class="a" d="M63.833,1041.81a11.917,11.917,0,1,1-11.917-11.95A11.934,11.934,0,0,1,63.833,1041.81Z" transform="translate(293.669 -427.582)"/><path class="a" d="M67.333,1017.31a11.917,11.917,0,1,1-11.917-11.95A11.934,11.934,0,0,1,67.333,1017.31Z" transform="translate(323.536 -637.308)"/><path class="a" d="M67.333,1020.812a11.917,11.917,0,1,1-11.915-11.952,11.934,11.934,0,0,1,11.915,11.952Z" transform="translate(323.536 -607.349)"/><path class="a" d="M67.333,1024.31a11.917,11.917,0,1,1-11.917-11.95A11.934,11.934,0,0,1,67.333,1024.31Z" transform="translate(323.536 -577.387)"/><path class="a" d="M67.333,1027.81a11.917,11.917,0,1,1-11.917-11.95A11.934,11.934,0,0,1,67.333,1027.81Z" transform="translate(323.536 -547.426)"/><path class="a" d="M67.333,1031.31a11.917,11.917,0,1,1-11.917-11.95A11.934,11.934,0,0,1,67.333,1031.31Z" transform="translate(323.536 -517.465)"/><path class="a" d="M67.333,1034.81a11.917,11.917,0,1,1-11.917-11.95A11.933,11.933,0,0,1,67.333,1034.81Z" transform="translate(323.536 -487.504)"/><path class="a" d="M67.333,1038.31a11.917,11.917,0,1,1-11.917-11.95A11.934,11.934,0,0,1,67.333,1038.31Z" transform="translate(323.536 -457.543)"/><path class="a" d="M67.333,1041.81a11.917,11.917,0,1,1-11.917-11.95A11.934,11.934,0,0,1,67.333,1041.81Z" transform="translate(323.536 -427.582)"/><path class="a" d="M67.333,1045.31a11.917,11.917,0,1,1-11.917-11.95A11.933,11.933,0,0,1,67.333,1045.31Z" transform="translate(323.536 -397.621)"/><path class="a" d="M70.833,1017.31a11.917,11.917,0,1,1-11.917-11.95A11.934,11.934,0,0,1,70.833,1017.31Z" transform="translate(353.402 -637.308)"/><path class="a" d="M70.833,1020.812a11.917,11.917,0,1,1-11.915-11.952,11.934,11.934,0,0,1,11.915,11.952Z" transform="translate(353.402 -607.349)"/><path class="a" d="M70.833,1024.31a11.917,11.917,0,1,1-11.917-11.95A11.934,11.934,0,0,1,70.833,1024.31Z" transform="translate(353.402 -577.387)"/><path class="a" d="M70.833,1027.81a11.917,11.917,0,1,1-11.917-11.95A11.934,11.934,0,0,1,70.833,1027.81Z" transform="translate(353.402 -547.426)"/><path class="a" d="M70.833,1031.31a11.917,11.917,0,1,1-11.917-11.95A11.934,11.934,0,0,1,70.833,1031.31Z" transform="translate(353.402 -517.465)"/><path class="a" d="M70.833,1034.81a11.917,11.917,0,1,1-11.917-11.95A11.933,11.933,0,0,1,70.833,1034.81Z" transform="translate(353.402 -487.504)"/><path class="a" d="M70.833,1038.31a11.917,11.917,0,1,1-11.917-11.95A11.934,11.934,0,0,1,70.833,1038.31Z" transform="translate(353.402 -457.543)"/><path class="a" d="M70.833,1041.81a11.917,11.917,0,1,1-11.917-11.95A11.934,11.934,0,0,1,70.833,1041.81Z" transform="translate(353.402 -427.582)"/><path class="a" d="M70.833,1045.31a11.917,11.917,0,1,1-11.917-11.95A11.933,11.933,0,0,1,70.833,1045.31Z" transform="translate(353.402 -397.621)"/><path class="a" d="M74.333,1017.31a11.917,11.917,0,1,1-11.917-11.95A11.934,11.934,0,0,1,74.333,1017.31Z" transform="translate(383.269 -637.308)"/><path class="a" d="M74.333,1020.812a11.917,11.917,0,1,1-11.915-11.952,11.934,11.934,0,0,1,11.915,11.952Z" transform="translate(383.269 -607.349)"/><path class="a" d="M74.333,1024.31a11.917,11.917,0,1,1-11.917-11.95A11.934,11.934,0,0,1,74.333,1024.31Z" transform="translate(383.269 -577.387)"/><path class="a" d="M74.333,1027.81a11.917,11.917,0,1,1-11.917-11.95A11.934,11.934,0,0,1,74.333,1027.81Z" transform="translate(383.269 -547.426)"/><path class="a" d="M74.333,1031.31a11.917,11.917,0,1,1-11.917-11.95A11.934,11.934,0,0,1,74.333,1031.31Z" transform="translate(383.269 -517.465)"/><path class="a" d="M74.333,1034.81a11.917,11.917,0,1,1-11.917-11.95A11.933,11.933,0,0,1,74.333,1034.81Z" transform="translate(383.269 -487.504)"/><path class="a" d="M74.333,1038.31a11.917,11.917,0,1,1-11.917-11.95A11.934,11.934,0,0,1,74.333,1038.31Z" transform="translate(383.269 -457.543)"/><path class="a" d="M74.333,1041.81a11.917,11.917,0,1,1-11.917-11.95A11.934,11.934,0,0,1,74.333,1041.81Z" transform="translate(383.269 -427.582)"/><path class="a" d="M74.333,1045.31a11.917,11.917,0,1,1-11.917-11.95A11.933,11.933,0,0,1,74.333,1045.31Z" transform="translate(383.269 -397.621)"/><path class="a" d="M77.833,1017.31a11.917,11.917,0,1,1-11.917-11.95A11.934,11.934,0,0,1,77.833,1017.31Z" transform="translate(413.136 -637.308)"/><path class="a" d="M77.833,1020.812a11.917,11.917,0,1,1-11.915-11.952,11.934,11.934,0,0,1,11.915,11.952Z" transform="translate(413.136 -607.349)"/><path class="a" d="M77.833,1024.31a11.917,11.917,0,1,1-11.917-11.95A11.934,11.934,0,0,1,77.833,1024.31Z" transform="translate(413.136 -577.387)"/><path class="a" d="M77.833,1027.81a11.917,11.917,0,1,1-11.917-11.95A11.934,11.934,0,0,1,77.833,1027.81Z" transform="translate(413.136 -547.426)"/><path class="a" d="M77.833,1031.31a11.917,11.917,0,1,1-11.917-11.95A11.934,11.934,0,0,1,77.833,1031.31Z" transform="translate(413.136 -517.465)"/><path class="a" d="M77.833,1034.81a11.917,11.917,0,1,1-11.917-11.95A11.933,11.933,0,0,1,77.833,1034.81Z" transform="translate(413.136 -487.504)"/><path class="a" d="M77.833,1038.31a11.917,11.917,0,1,1-11.917-11.95A11.934,11.934,0,0,1,77.833,1038.31Z" transform="translate(413.136 -457.543)"/><path class="a" d="M77.833,1041.81a11.917,11.917,0,1,1-11.917-11.95A11.934,11.934,0,0,1,77.833,1041.81Z" transform="translate(413.136 -427.582)"/><path class="a" d="M77.833,1045.31a11.917,11.917,0,1,1-11.917-11.95A11.933,11.933,0,0,1,77.833,1045.31Z" transform="translate(413.136 -397.621)"/><path class="a" d="M81.333,1013.81a11.917,11.917,0,1,1-11.917-11.951A11.934,11.934,0,0,1,81.333,1013.81Z" transform="translate(443.003 -667.269)"/><path class="a" d="M81.333,1017.31a11.917,11.917,0,1,1-11.917-11.95A11.934,11.934,0,0,1,81.333,1017.31Z" transform="translate(443.003 -637.308)"/><path class="a" d="M81.333,1020.812a11.917,11.917,0,1,1-11.915-11.952,11.934,11.934,0,0,1,11.915,11.952Z" transform="translate(443.003 -607.349)"/><path class="a" d="M81.333,1024.31a11.917,11.917,0,1,1-11.917-11.95A11.934,11.934,0,0,1,81.333,1024.31Z" transform="translate(443.003 -577.387)"/><path class="a" d="M81.333,1027.81a11.917,11.917,0,1,1-11.917-11.95A11.934,11.934,0,0,1,81.333,1027.81Z" transform="translate(443.003 -547.426)"/><path class="a" d="M81.333,1031.31a11.917,11.917,0,1,1-11.917-11.95A11.934,11.934,0,0,1,81.333,1031.31Z" transform="translate(443.003 -517.465)"/><path class="a" d="M81.333,1034.81a11.917,11.917,0,1,1-11.917-11.95A11.933,11.933,0,0,1,81.333,1034.81Z" transform="translate(443.003 -487.504)"/><path class="a" d="M81.333,1038.31a11.917,11.917,0,1,1-11.917-11.95A11.934,11.934,0,0,1,81.333,1038.31Z" transform="translate(443.003 -457.543)"/><path class="a" d="M81.333,1041.81a11.917,11.917,0,1,1-11.917-11.95A11.934,11.934,0,0,1,81.333,1041.81Z" transform="translate(443.003 -427.582)"/><path class="a" d="M81.333,1045.31a11.917,11.917,0,1,1-11.917-11.95A11.933,11.933,0,0,1,81.333,1045.31Z" transform="translate(443.003 -397.621)"/><path class="a" d="M84.833,1006.812a11.917,11.917,0,1,1-11.917-11.95A11.934,11.934,0,0,1,84.833,1006.812Z" transform="translate(472.87 -727.175)"/><path class="a" d="M84.833,1010.312a11.917,11.917,0,1,1-11.917-11.95A11.934,11.934,0,0,1,84.833,1010.312Z" transform="translate(472.87 -697.213)"/><path class="a" d="M84.833,1013.81a11.917,11.917,0,1,1-11.917-11.951A11.934,11.934,0,0,1,84.833,1013.81Z" transform="translate(472.87 -667.269)"/><path class="a" d="M84.833,1017.31a11.917,11.917,0,1,1-11.917-11.95A11.934,11.934,0,0,1,84.833,1017.31Z" transform="translate(472.87 -637.308)"/><path class="a" d="M84.833,1020.812a11.917,11.917,0,1,1-11.915-11.952,11.934,11.934,0,0,1,11.915,11.952Z" transform="translate(472.87 -607.349)"/><path class="a" d="M84.833,1024.31a11.917,11.917,0,1,1-11.917-11.95A11.934,11.934,0,0,1,84.833,1024.31Z" transform="translate(472.87 -577.387)"/><path class="a" d="M84.833,1027.81a11.917,11.917,0,1,1-11.917-11.95A11.934,11.934,0,0,1,84.833,1027.81Z" transform="translate(472.87 -547.426)"/><path class="a" d="M84.833,1031.31a11.917,11.917,0,1,1-11.917-11.95A11.934,11.934,0,0,1,84.833,1031.31Z" transform="translate(472.87 -517.465)"/><path class="a" d="M84.833,1034.81a11.917,11.917,0,1,1-11.917-11.95A11.933,11.933,0,0,1,84.833,1034.81Z" transform="translate(472.87 -487.504)"/><path class="a" d="M84.833,1038.31a11.917,11.917,0,1,1-11.917-11.95A11.934,11.934,0,0,1,84.833,1038.31Z" transform="translate(472.87 -457.543)"/><path class="a" d="M84.833,1041.81a11.917,11.917,0,1,1-11.917-11.95A11.934,11.934,0,0,1,84.833,1041.81Z" transform="translate(472.87 -427.582)"/><path class="a" d="M84.833,1045.31a11.917,11.917,0,1,1-11.917-11.95A11.933,11.933,0,0,1,84.833,1045.31Z" transform="translate(472.87 -397.621)"/><path class="a" d="M84.833,1048.81a11.917,11.917,0,1,1-11.917-11.95A11.934,11.934,0,0,1,84.833,1048.81Z" transform="translate(472.87 -367.66)"/><path class="a" d="M88.333,1003.312a11.917,11.917,0,1,1-11.917-11.95A11.934,11.934,0,0,1,88.333,1003.312Z" transform="translate(502.737 -757.136)"/><path class="a" d="M88.333,1006.812a11.917,11.917,0,1,1-11.917-11.95A11.934,11.934,0,0,1,88.333,1006.812Z" transform="translate(502.737 -727.175)"/><path class="a" d="M88.333,1010.312a11.917,11.917,0,1,1-11.917-11.95A11.934,11.934,0,0,1,88.333,1010.312Z" transform="translate(502.737 -697.213)"/><path class="a" d="M88.333,1013.81a11.917,11.917,0,1,1-11.917-11.951A11.934,11.934,0,0,1,88.333,1013.81Z" transform="translate(502.737 -667.269)"/><path class="a" d="M88.333,1017.31a11.917,11.917,0,1,1-11.917-11.95A11.934,11.934,0,0,1,88.333,1017.31Z" transform="translate(502.737 -637.308)"/><path class="a" d="M88.333,1020.812a11.917,11.917,0,1,1-11.915-11.952,11.934,11.934,0,0,1,11.915,11.952Z" transform="translate(502.737 -607.349)"/><path class="a" d="M88.333,1024.31a11.917,11.917,0,1,1-11.917-11.95A11.934,11.934,0,0,1,88.333,1024.31Z" transform="translate(502.737 -577.387)"/><path class="a" d="M88.333,1027.81a11.917,11.917,0,1,1-11.917-11.95A11.934,11.934,0,0,1,88.333,1027.81Z" transform="translate(502.737 -547.426)"/><path class="a" d="M88.333,1031.31a11.917,11.917,0,1,1-11.917-11.95A11.934,11.934,0,0,1,88.333,1031.31Z" transform="translate(502.737 -517.465)"/><path class="a" d="M88.333,1034.81a11.917,11.917,0,1,1-11.917-11.95A11.933,11.933,0,0,1,88.333,1034.81Z" transform="translate(502.737 -487.504)"/><path class="a" d="M88.333,1038.31a11.917,11.917,0,1,1-11.917-11.95A11.934,11.934,0,0,1,88.333,1038.31Z" transform="translate(502.737 -457.543)"/><path class="a" d="M88.333,1041.81a11.917,11.917,0,1,1-11.917-11.95A11.934,11.934,0,0,1,88.333,1041.81Z" transform="translate(502.737 -427.582)"/><path class="a" d="M88.333,1045.31a11.917,11.917,0,1,1-11.917-11.95A11.933,11.933,0,0,1,88.333,1045.31Z" transform="translate(502.737 -397.621)"/><path class="a" d="M88.333,1048.81a11.917,11.917,0,1,1-11.917-11.95A11.934,11.934,0,0,1,88.333,1048.81Z" transform="translate(502.737 -367.66)"/><path class="a" d="M91.833,999.812a11.917,11.917,0,1,1-11.917-11.95A11.933,11.933,0,0,1,91.833,999.812Z" transform="translate(532.604 -787.096)"/><path class="a" d="M91.833,1003.312a11.917,11.917,0,1,1-11.917-11.95A11.934,11.934,0,0,1,91.833,1003.312Z" transform="translate(532.604 -757.136)"/><path class="a" d="M91.833,1006.812a11.917,11.917,0,1,1-11.917-11.95A11.934,11.934,0,0,1,91.833,1006.812Z" transform="translate(532.604 -727.175)"/><path class="a" d="M91.833,1010.312a11.917,11.917,0,1,1-11.917-11.95A11.934,11.934,0,0,1,91.833,1010.312Z" transform="translate(532.604 -697.213)"/><path class="a" d="M91.833,1013.81a11.917,11.917,0,1,1-11.917-11.951A11.934,11.934,0,0,1,91.833,1013.81Z" transform="translate(532.604 -667.269)"/><path class="a" d="M91.833,1017.31a11.917,11.917,0,1,1-11.917-11.95A11.934,11.934,0,0,1,91.833,1017.31Z" transform="translate(532.604 -637.308)"/><path class="a" d="M91.833,1020.812a11.917,11.917,0,1,1-11.915-11.952,11.934,11.934,0,0,1,11.915,11.952Z" transform="translate(532.604 -607.349)"/><path class="a" d="M91.833,1024.31a11.917,11.917,0,1,1-11.917-11.95A11.934,11.934,0,0,1,91.833,1024.31Z" transform="translate(532.604 -577.387)"/><path class="a" d="M91.833,1027.81a11.917,11.917,0,1,1-11.917-11.95A11.934,11.934,0,0,1,91.833,1027.81Z" transform="translate(532.604 -547.426)"/><path class="a" d="M91.833,1031.31a11.917,11.917,0,1,1-11.917-11.95A11.934,11.934,0,0,1,91.833,1031.31Z" transform="translate(532.604 -517.465)"/><path class="a" d="M91.833,1034.81a11.917,11.917,0,1,1-11.917-11.95A11.933,11.933,0,0,1,91.833,1034.81Z" transform="translate(532.604 -487.504)"/><path class="a" d="M91.833,1038.31a11.917,11.917,0,1,1-11.917-11.95A11.934,11.934,0,0,1,91.833,1038.31Z" transform="translate(532.604 -457.543)"/><path class="a" d="M91.833,1041.81a11.917,11.917,0,1,1-11.917-11.95A11.934,11.934,0,0,1,91.833,1041.81Z" transform="translate(532.604 -427.582)"/><path class="a" d="M91.833,1045.31a11.917,11.917,0,1,1-11.917-11.95A11.933,11.933,0,0,1,91.833,1045.31Z" transform="translate(532.604 -397.621)"/><path class="a" d="M91.833,1048.81a11.917,11.917,0,1,1-11.917-11.95A11.934,11.934,0,0,1,91.833,1048.81Z" transform="translate(532.604 -367.66)"/><path class="a" d="M95.333,996.311a11.917,11.917,0,1,1-11.917-11.949,11.934,11.934,0,0,1,11.917,11.949Z" transform="translate(562.471 -817.056)"/><path class="a" d="M95.333,999.812a11.917,11.917,0,1,1-11.917-11.95A11.933,11.933,0,0,1,95.333,999.812Z" transform="translate(562.471 -787.096)"/><path class="a" d="M95.333,1003.312a11.917,11.917,0,1,1-11.917-11.95A11.934,11.934,0,0,1,95.333,1003.312Z" transform="translate(562.471 -757.136)"/><path class="a" d="M95.333,1006.812a11.917,11.917,0,1,1-11.917-11.95A11.934,11.934,0,0,1,95.333,1006.812Z" transform="translate(562.471 -727.175)"/><path class="a" d="M95.333,1010.312a11.917,11.917,0,1,1-11.917-11.95A11.934,11.934,0,0,1,95.333,1010.312Z" transform="translate(562.471 -697.213)"/><path class="a" d="M95.333,1013.81a11.917,11.917,0,1,1-11.917-11.951A11.934,11.934,0,0,1,95.333,1013.81Z" transform="translate(562.471 -667.269)"/><path class="a" d="M95.333,1017.31a11.917,11.917,0,1,1-11.917-11.95A11.934,11.934,0,0,1,95.333,1017.31Z" transform="translate(562.471 -637.308)"/><path class="a" d="M95.333,1020.812a11.917,11.917,0,1,1-11.915-11.952,11.934,11.934,0,0,1,11.915,11.952Z" transform="translate(562.471 -607.349)"/><path class="a" d="M95.333,1024.31a11.917,11.917,0,1,1-11.917-11.95A11.934,11.934,0,0,1,95.333,1024.31Z" transform="translate(562.471 -577.387)"/><path class="a" d="M95.333,1027.81a11.917,11.917,0,1,1-11.917-11.95A11.934,11.934,0,0,1,95.333,1027.81Z" transform="translate(562.471 -547.426)"/><path class="a" d="M95.333,1031.31a11.917,11.917,0,1,1-11.917-11.95A11.934,11.934,0,0,1,95.333,1031.31Z" transform="translate(562.471 -517.465)"/><path class="a" d="M95.333,1034.81a11.917,11.917,0,1,1-11.917-11.95A11.934,11.934,0,0,1,95.333,1034.81Z" transform="translate(562.471 -487.504)"/><path class="a" d="M95.333,1038.31a11.917,11.917,0,1,1-11.917-11.95A11.934,11.934,0,0,1,95.333,1038.31Z" transform="translate(562.471 -457.543)"/><path class="a" d="M95.333,1041.81a11.917,11.917,0,1,1-11.917-11.95A11.934,11.934,0,0,1,95.333,1041.81Z" transform="translate(562.471 -427.582)"/><path class="a" d="M95.333,1045.31a11.917,11.917,0,1,1-11.917-11.95A11.934,11.934,0,0,1,95.333,1045.31Z" transform="translate(562.471 -397.621)"/><path class="a" d="M95.333,1048.81a11.917,11.917,0,1,1-11.917-11.95A11.934,11.934,0,0,1,95.333,1048.81Z" transform="translate(562.471 -367.66)"/><path class="a" d="M98.833,992.811a11.917,11.917,0,1,1-11.917-11.949,11.934,11.934,0,0,1,11.917,11.949Z" transform="translate(592.337 -847.018)"/><path class="a" d="M98.833,996.311a11.917,11.917,0,1,1-11.917-11.949,11.934,11.934,0,0,1,11.917,11.949Z" transform="translate(592.337 -817.056)"/><path class="a" d="M98.833,999.812a11.917,11.917,0,1,1-11.917-11.95A11.933,11.933,0,0,1,98.833,999.812Z" transform="translate(592.337 -787.096)"/><path class="a" d="M98.833,1003.312a11.917,11.917,0,1,1-11.917-11.95A11.934,11.934,0,0,1,98.833,1003.312Z" transform="translate(592.337 -757.136)"/><path class="a" d="M98.833,1006.812a11.917,11.917,0,1,1-11.917-11.95A11.934,11.934,0,0,1,98.833,1006.812Z" transform="translate(592.337 -727.175)"/><path class="a" d="M98.833,1010.312a11.917,11.917,0,1,1-11.917-11.95A11.934,11.934,0,0,1,98.833,1010.312Z" transform="translate(592.337 -697.213)"/><path class="a" d="M98.833,1013.81a11.917,11.917,0,1,1-11.917-11.951A11.934,11.934,0,0,1,98.833,1013.81Z" transform="translate(592.337 -667.269)"/><path class="a" d="M98.833,1017.31a11.917,11.917,0,1,1-11.917-11.95A11.934,11.934,0,0,1,98.833,1017.31Z" transform="translate(592.337 -637.308)"/><path class="a" d="M98.833,1020.812a11.917,11.917,0,1,1-11.915-11.952,11.934,11.934,0,0,1,11.915,11.952Z" transform="translate(592.337 -607.349)"/><path class="a" d="M98.833,1024.31a11.917,11.917,0,1,1-11.917-11.95A11.934,11.934,0,0,1,98.833,1024.31Z" transform="translate(592.337 -577.387)"/><path class="a" d="M98.833,1027.81a11.917,11.917,0,1,1-11.917-11.95A11.934,11.934,0,0,1,98.833,1027.81Z" transform="translate(592.337 -547.426)"/><path class="a" d="M98.833,1031.31a11.917,11.917,0,1,1-11.917-11.95A11.934,11.934,0,0,1,98.833,1031.31Z" transform="translate(592.337 -517.465)"/><path class="a" d="M98.833,1034.81a11.917,11.917,0,1,1-11.917-11.95A11.934,11.934,0,0,1,98.833,1034.81Z" transform="translate(592.337 -487.504)"/><path class="a" d="M98.833,1038.31a11.917,11.917,0,1,1-11.917-11.95A11.934,11.934,0,0,1,98.833,1038.31Z" transform="translate(592.337 -457.543)"/><path class="a" d="M98.833,1041.81a11.917,11.917,0,1,1-11.917-11.95A11.934,11.934,0,0,1,98.833,1041.81Z" transform="translate(592.337 -427.582)"/><path class="a" d="M98.833,1045.31a11.917,11.917,0,1,1-11.917-11.95A11.934,11.934,0,0,1,98.833,1045.31Z" transform="translate(592.337 -397.621)"/><path class="a" d="M102.334,989.312a11.917,11.917,0,1,1-11.917-11.95A11.934,11.934,0,0,1,102.334,989.312Z" transform="translate(622.204 -876.979)"/><path class="a" d="M102.334,992.811a11.917,11.917,0,1,1-11.917-11.949,11.934,11.934,0,0,1,11.917,11.949Z" transform="translate(622.204 -847.018)"/><path class="a" d="M102.334,996.311a11.917,11.917,0,1,1-11.917-11.949,11.934,11.934,0,0,1,11.917,11.949Z" transform="translate(622.204 -817.056)"/><path class="a" d="M102.334,999.812a11.917,11.917,0,1,1-11.917-11.95A11.933,11.933,0,0,1,102.334,999.812Z" transform="translate(622.204 -787.096)"/><path class="a" d="M102.334,1003.312a11.917,11.917,0,1,1-11.917-11.95A11.934,11.934,0,0,1,102.334,1003.312Z" transform="translate(622.204 -757.136)"/><path class="a" d="M102.334,1006.812a11.917,11.917,0,1,1-11.917-11.95A11.934,11.934,0,0,1,102.334,1006.812Z" transform="translate(622.204 -727.175)"/><path class="a" d="M102.334,1010.312a11.917,11.917,0,1,1-11.917-11.95A11.934,11.934,0,0,1,102.334,1010.312Z" transform="translate(622.204 -697.213)"/><path class="a" d="M102.334,1013.81a11.917,11.917,0,1,1-11.917-11.951A11.934,11.934,0,0,1,102.334,1013.81Z" transform="translate(622.204 -667.269)"/><path class="a" d="M102.334,1017.31a11.917,11.917,0,1,1-11.917-11.95A11.934,11.934,0,0,1,102.334,1017.31Z" transform="translate(622.204 -637.308)"/><path class="a" d="M102.334,1020.812a11.917,11.917,0,1,1-11.915-11.952,11.934,11.934,0,0,1,11.915,11.952Z" transform="translate(622.204 -607.349)"/><path class="a" d="M102.334,1024.31a11.917,11.917,0,1,1-11.917-11.95A11.934,11.934,0,0,1,102.334,1024.31Z" transform="translate(622.204 -577.387)"/><path class="a" d="M102.334,1027.81a11.917,11.917,0,1,1-11.917-11.95A11.934,11.934,0,0,1,102.334,1027.81Z" transform="translate(622.204 -547.426)"/><path class="a" d="M105.833,985.812a11.917,11.917,0,1,1-11.917-11.95A11.934,11.934,0,0,1,105.833,985.812Z" transform="translate(652.071 -906.94)"/><path class="a" d="M105.833,989.312a11.917,11.917,0,1,1-11.917-11.95A11.934,11.934,0,0,1,105.833,989.312Z" transform="translate(652.071 -876.979)"/><path class="a" d="M105.833,992.811a11.917,11.917,0,1,1-11.917-11.949,11.934,11.934,0,0,1,11.917,11.949Z" transform="translate(652.071 -847.018)"/><path class="a" d="M105.833,996.311a11.917,11.917,0,1,1-11.917-11.949,11.934,11.934,0,0,1,11.917,11.949Z" transform="translate(652.071 -817.056)"/><path class="a" d="M105.833,999.812a11.917,11.917,0,1,1-11.917-11.95A11.933,11.933,0,0,1,105.833,999.812Z" transform="translate(652.071 -787.096)"/><path class="a" d="M105.833,1003.312a11.917,11.917,0,1,1-11.917-11.95A11.934,11.934,0,0,1,105.833,1003.312Z" transform="translate(652.071 -757.136)"/><path class="a" d="M105.833,1006.812a11.917,11.917,0,1,1-11.917-11.95A11.934,11.934,0,0,1,105.833,1006.812Z" transform="translate(652.071 -727.175)"/><path class="a" d="M105.833,1010.312a11.917,11.917,0,1,1-11.917-11.95A11.934,11.934,0,0,1,105.833,1010.312Z" transform="translate(652.071 -697.213)"/><path class="a" d="M105.833,1013.81a11.917,11.917,0,1,1-11.917-11.951A11.934,11.934,0,0,1,105.833,1013.81Z" transform="translate(652.071 -667.269)"/><path class="a" d="M105.833,1017.31a11.917,11.917,0,1,1-11.917-11.95A11.934,11.934,0,0,1,105.833,1017.31Z" transform="translate(652.071 -637.308)"/><path class="a" d="M109.333,985.812a11.917,11.917,0,1,1-11.917-11.95A11.934,11.934,0,0,1,109.333,985.812Z" transform="translate(681.938 -906.94)"/><path class="a" d="M109.333,989.312a11.917,11.917,0,1,1-11.917-11.95A11.934,11.934,0,0,1,109.333,989.312Z" transform="translate(681.938 -876.979)"/><path class="a" d="M109.333,992.811a11.917,11.917,0,1,1-11.917-11.949,11.934,11.934,0,0,1,11.917,11.949Z" transform="translate(681.938 -847.018)"/><path class="a" d="M109.333,996.311a11.917,11.917,0,1,1-11.917-11.949,11.934,11.934,0,0,1,11.917,11.949Z" transform="translate(681.938 -817.056)"/><path class="a" d="M109.333,999.812a11.917,11.917,0,1,1-11.917-11.95A11.933,11.933,0,0,1,109.333,999.812Z" transform="translate(681.938 -787.096)"/><path class="a" d="M109.333,1003.312a11.917,11.917,0,1,1-11.917-11.95A11.934,11.934,0,0,1,109.333,1003.312Z" transform="translate(681.938 -757.136)"/><path class="a" d="M109.333,1006.812a11.917,11.917,0,1,1-11.917-11.95A11.934,11.934,0,0,1,109.333,1006.812Z" transform="translate(681.938 -727.175)"/><path class="a" d="M109.333,1010.312a11.917,11.917,0,1,1-11.917-11.95A11.934,11.934,0,0,1,109.333,1010.312Z" transform="translate(681.938 -697.213)"/><path class="a" d="M109.333,1013.81a11.917,11.917,0,1,1-11.917-11.951A11.934,11.934,0,0,1,109.333,1013.81Z" transform="translate(681.938 -667.269)"/><path class="a" d="M109.333,1017.31a11.917,11.917,0,1,1-11.917-11.95A11.934,11.934,0,0,1,109.333,1017.31Z" transform="translate(681.938 -637.308)"/><path class="a" d="M112.833,978.812a11.917,11.917,0,1,1-11.916-11.95,11.933,11.933,0,0,1,11.916,11.95Z" transform="translate(711.805 -966.862)"/><path class="a" d="M112.833,982.312a11.917,11.917,0,1,1-11.917-11.95,11.934,11.934,0,0,1,11.917,11.95Z" transform="translate(711.805 -936.901)"/><path class="a" d="M112.833,985.812a11.917,11.917,0,1,1-11.917-11.95,11.934,11.934,0,0,1,11.917,11.95Z" transform="translate(711.805 -906.94)"/><path class="a" d="M112.833,989.312a11.917,11.917,0,1,1-11.917-11.95,11.934,11.934,0,0,1,11.917,11.95Z" transform="translate(711.805 -876.979)"/><path class="a" d="M112.833,992.811a11.917,11.917,0,1,1-11.917-11.949,11.934,11.934,0,0,1,11.917,11.949Z" transform="translate(711.805 -847.018)"/><path class="a" d="M112.833,996.311a11.917,11.917,0,1,1-11.917-11.949,11.934,11.934,0,0,1,11.917,11.949Z" transform="translate(711.805 -817.056)"/><path class="a" d="M112.833,999.812a11.917,11.917,0,1,1-11.917-11.95,11.933,11.933,0,0,1,11.917,11.95Z" transform="translate(711.805 -787.096)"/><path class="a" d="M112.833,1003.312a11.917,11.917,0,1,1-11.917-11.95,11.934,11.934,0,0,1,11.917,11.95Z" transform="translate(711.805 -757.136)"/><path class="a" d="M112.833,1006.812a11.917,11.917,0,1,1-11.917-11.95,11.934,11.934,0,0,1,11.917,11.95Z" transform="translate(711.805 -727.175)"/><path class="a" d="M112.833,1017.31a11.917,11.917,0,1,1-11.917-11.95,11.934,11.934,0,0,1,11.917,11.95Z" transform="translate(711.805 -637.308)"/><path class="a" d="M116.333,989.312a11.917,11.917,0,1,1-11.917-11.95A11.934,11.934,0,0,1,116.333,989.312Z" transform="translate(741.672 -876.979)"/><path class="a" d="M116.333,992.811a11.917,11.917,0,1,1-11.917-11.949,11.934,11.934,0,0,1,11.917,11.949Z" transform="translate(741.672 -847.018)"/><path class="a" d="M116.333,996.311a11.917,11.917,0,1,1-11.917-11.949,11.934,11.934,0,0,1,11.917,11.949Z" transform="translate(741.672 -817.056)"/><path class="a" d="M116.333,999.812a11.917,11.917,0,1,1-11.917-11.95A11.933,11.933,0,0,1,116.333,999.812Z" transform="translate(741.672 -787.096)"/><path class="a" d="M116.333,1003.312a11.917,11.917,0,1,1-11.917-11.95A11.934,11.934,0,0,1,116.333,1003.312Z" transform="translate(741.672 -757.136)"/></g></g></svg>